<svg width="48" height="48" viewBox="0 0 48 48" fill="none" xmlns="http://www.w3.org/2000/svg">
<path opacity="0.362" d="M24 48C37.2548 48 48 37.2548 48 24C48 10.7452 37.2548 0 24 0C10.7452 0 0 10.7452 0 24C0 37.2548 10.7452 48 24 48Z" fill="#A7B7A4"/>
<path opacity="0.534" d="M24.5 44C35.2696 44 44 35.2696 44 24.5C44 13.7304 35.2696 5 24.5 5C13.7304 5 5 13.7304 5 24.5C5 35.2696 13.7304 44 24.5 44Z" fill="#A7B7A4"/>
<path opacity="0.727" d="M24.5 39C32.5081 39 39 32.5081 39 24.5C39 16.4919 32.5081 10 24.5 10C16.4919 10 10 16.4919 10 24.5C10 32.5081 16.4919 39 24.5 39Z" fill="#A7B7A4"/>
<path fill-rule="evenodd" clip-rule="evenodd" d="M21.5449 17.6999L23.2549 20.1329C23.4149 20.3401 23.5017 20.5946 23.5017 20.8564C23.5017 21.1182 23.4149 21.3726 23.2549 21.5799L22.3339 22.5009C23.6934 24.5067 25.4099 26.2456 27.3979 27.6309L28.3189 26.7099C28.5317 26.5337 28.7992 26.4373 29.0754 26.4373C29.3517 26.4373 29.6192 26.5337 29.8319 26.7099L32.2649 28.4199C32.3667 28.5178 32.4477 28.6353 32.503 28.7653C32.5583 28.8953 32.5868 29.0351 32.5868 29.1764C32.5868 29.3176 32.5583 29.4574 32.503 29.5874C32.4477 29.7174 32.3667 29.8349 32.2649 29.9329L30.5549 31.5769C28.1869 33.8769 15.9549 21.7119 18.3219 19.3439L20.0319 17.6999C20.13 17.5983 20.2476 17.5176 20.3776 17.4625C20.5075 17.4073 20.6473 17.3789 20.7884 17.3789C20.9296 17.3789 21.0694 17.4073 21.1993 17.4625C21.3293 17.5176 21.4468 17.5983 21.5449 17.6999Z" fill="white"/>
</svg>
