<svg width="27" height="27" viewBox="0 0 27 27" fill="none" xmlns="http://www.w3.org/2000/svg">
<path d="M20.3783 21.8607L18.4122 17.8289C18.0197 17.0283 17.0243 16.7057 16.1933 17.1113L14.1623 18.1015C14.085 18.0161 14.0051 17.9271 13.9213 17.833C13.1493 16.9759 12.0929 15.8017 11.1923 13.9534C10.2886 12.1009 10.0137 10.5433 9.81217 9.40604C9.79104 9.28563 9.77101 9.16965 9.74995 9.05882L11.1126 8.39547L11.783 8.06799C12.6153 7.66192 12.9728 6.6789 12.5823 5.87706L10.6163 1.84494C10.2255 1.04393 9.2297 0.721256 8.3974 1.12733L7.25953 1.68635L7.27473 1.71723C6.86681 1.98126 6.48639 2.31679 6.15529 2.70587C5.84542 3.07804 5.60361 3.45175 5.41641 3.84519C3.89008 6.99161 4.35716 10.5084 7.02648 15.9814C10.7165 23.5463 15.3979 24.6827 15.6007 24.7294C16.0444 24.8251 16.4878 24.8639 16.9583 24.8457C17.4641 24.825 17.9623 24.7321 18.4211 24.5737L18.4339 24.5965L19.5788 24.0529C20.4098 23.6464 20.7682 22.6633 20.3783 21.8607Z" fill="white"/>
</svg>
