<svg width="1466" height="18" viewBox="0 0 1466 18" fill="none" xmlns="http://www.w3.org/2000/svg">
<path d="M0.0107809 0.0527554C0.0682024 0.0877552 0.455797 0.149006 0.872103 0.184006C1.28841 0.210257 2.10667 0.367756 2.69524 0.516506C5.73857 1.28651 8.43738 3.25526 12.6004 7.70026C17.3808 12.8103 18.4574 13.869 20.338 15.234C22.075 16.494 23.6541 17.2553 25.4485 17.6753C26.2524 17.8678 26.5252 17.8765 29.1809 17.8765C32.3534 17.8765 33.0425 17.7978 34.5211 17.2378C35.7987 16.7478 35.7844 16.7565 36.3155 17.0015C37.9233 17.7365 39.3302 17.9378 42.6749 17.9028C45.0292 17.8765 45.1584 17.8678 46.2638 17.6053C49.5942 16.8003 52.2213 14.8578 57.1739 9.53776C59.6861 6.83401 61.136 5.36401 62.2844 4.33151C63.6194 3.15026 63.6912 3.09776 63.8348 3.20276C64.6243 3.73651 67.0647 6.09026 69.1606 8.35651C71.7159 11.104 72.7064 12.1278 73.9697 13.3003C76.5967 15.7503 78.8074 17.0628 81.3196 17.649C82.1953 17.8503 82.5255 17.8765 84.6644 17.9028C87.9949 17.9378 89.1433 17.7803 91.0238 17.0453L91.101 17.0149C91.4928 16.8607 91.9298 16.8684 92.3158 17.0365C93.9093 17.7278 94.6845 17.859 97.656 17.894C100.541 17.929 101.589 17.824 103.025 17.369C106.126 16.3715 108.336 14.639 113.404 9.23151C114.94 7.59526 116.605 5.86276 117.093 5.38151C118.156 4.34901 119.548 3.15026 119.692 3.15026C119.979 3.15026 122.577 5.60901 124.716 7.91901C129.855 13.4578 131.449 14.9103 133.932 16.319C135.152 17.0103 136.301 17.4565 137.478 17.7015C138.554 17.929 142.832 17.9903 144.211 17.7978C145.187 17.6665 146.321 17.3428 147.096 16.9928C147.541 16.7915 147.613 16.7828 147.914 16.8965C150.312 17.8065 150.656 17.8678 153.57 17.9028C154.877 17.9203 156.326 17.8853 156.8 17.8415C159.198 17.5878 161.796 16.3803 164.15 14.4203C165.184 13.5715 166.72 12.049 168.572 10.0628C172.806 5.52151 174.486 3.91151 176.309 2.59901C178.233 1.23401 180.616 0.297756 182.41 0.201506C182.898 0.175257 183.329 0.114006 183.386 0.0615063C183.487 -0.0347443 182.008 0.0527554 180.731 0.227757C177.371 0.682756 174.256 2.15276 171.084 4.76901C169.734 5.88026 168.572 7.00026 165.901 9.73026C162.183 13.5453 160.963 14.6478 159.097 15.829C157.547 16.8178 156.054 17.4303 154.618 17.6665C154.101 17.754 153.886 17.7365 153.226 17.5965C152.178 17.3778 150.958 16.914 149.981 16.3803L149.688 16.2176C149.457 16.0897 149.437 15.7651 149.651 15.6103C151.69 14.1315 153.068 12.819 156.8 8.83776C160.633 4.74276 162.04 3.45651 164.193 2.06526C165.758 1.05026 167.954 0.280256 169.505 0.201506C169.978 0.175257 170.409 0.114006 170.452 0.0790062C170.567 -0.0347443 169.993 -0.0172443 168.572 0.131506C165.255 0.481506 162.298 1.66276 159.456 3.75401C157.461 5.22401 156.197 6.39651 152.58 10.124C150.584 12.189 149.177 13.554 148.23 14.324C147.771 14.709 147.627 14.779 147.455 14.6915C146.794 14.359 144.569 12.154 140.579 7.87526C136.559 3.54401 134.219 1.73276 131.334 0.700256C129.798 0.149006 129.051 0.0615063 126.08 0.0615063C123.065 0.0702553 122.261 0.184006 120.639 0.814007L120.528 0.857897C119.973 1.07685 119.354 1.07367 118.801 0.849007C118.342 0.656506 117.495 0.402756 116.921 0.289005C115.959 0.0790062 115.701 0.0702553 113.232 0.0702553C110.088 0.0702553 109.341 0.175257 107.561 0.875256C104.776 1.99526 102.566 3.78026 98.2302 8.45276C94.8424 12.0928 93.1341 13.7903 92.0574 14.569C91.8437 14.7253 91.5534 14.7253 91.3397 14.569C90.263 13.7903 88.5547 12.0928 85.1669 8.45276C80.3578 3.27276 77.86 1.36526 74.6874 0.481506C73.3954 0.114006 72.3044 0.0177555 69.6631 0.0440063C67.7825 0.0615063 67.3805 0.0877552 66.4762 0.280256C65.9019 0.402756 65.055 0.665257 64.5813 0.857756L64.2033 1.01132C63.8949 1.13664 63.5484 1.12856 63.2462 0.989006C62.471 0.630257 60.8058 0.192757 59.887 0.105255C59.4277 0.0615063 58.0352 0.0352554 56.8006 0.0527554C54.9632 0.0702553 54.4033 0.114006 53.6425 0.262756C52.2787 0.542755 51.1446 0.997755 49.7234 1.82901C47.3117 3.25526 45.8906 4.54151 41.4691 9.30151C39.2153 11.7428 37.6075 13.3353 36.4878 14.2628L36.2924 14.4268C36.0328 14.6449 35.6532 14.6421 35.3968 14.4203C34.5785 13.7378 33.2435 12.4078 31.0758 10.1065C27.4008 6.22151 25.994 4.90901 23.9268 3.45651C21.7305 1.90776 19.5341 0.936506 17.108 0.446507C15.9883 0.219006 13.9786 -0.00849342 13.1029 0.000255585C12.5574 0.0090065 13.2034 0.149006 14.036 0.201506C15.1126 0.280256 16.9071 0.831507 18.1273 1.45276C20.6969 2.78276 22.4913 4.38401 27.6736 9.97526C29.669 12.1278 31.7649 14.1228 32.942 14.9978C33.3152 15.2778 33.7603 15.6015 33.9182 15.724C34.0535 15.8271 34.0384 16.0352 33.8896 16.1177L33.4157 16.3803C32.4683 16.9053 31.0184 17.439 30.0279 17.6315C29.3245 17.7715 29.267 17.7628 28.4631 17.5965C27.1711 17.3165 26.1519 16.9053 24.8743 16.144C22.9076 14.9803 21.5295 13.729 17.6248 9.58151C16.4907 8.37401 15.1126 6.95651 14.5671 6.43151C10.8491 2.85276 7.23153 0.884007 3.26945 0.271505C2.10667 0.0965061 -0.175839 -0.0609932 0.0107809 0.0527554ZM58.5663 0.464006C59.7148 0.761505 62.1265 1.83776 62.1265 2.05651C62.1265 2.10901 61.9542 2.24901 61.7532 2.37151C60.5474 3.05401 58.0208 5.40776 55.0924 8.57526C50.6278 13.4053 49.0057 14.8665 46.5796 16.2403C45.3594 16.9228 44.3258 17.334 43.12 17.5965C42.3017 17.7628 42.2586 17.7628 41.4978 17.6228C40.4786 17.4303 39.3302 17.0015 38.1961 16.3978C37.7794 16.176 37.7401 15.5939 38.1233 15.3182L38.1674 15.2865C39.5455 14.2803 41.4117 12.5478 43.6081 10.194C47.0103 6.54526 47.7568 5.77526 48.9913 4.63776C51.6471 2.18776 54.0588 0.805256 56.4848 0.350256C57.3318 0.192757 57.5615 0.210257 58.5663 0.464006ZM72.2614 0.682756C74.9458 1.51401 77.8026 3.72776 81.9369 8.18151C86.2866 12.854 87.4206 13.939 89.617 15.5315C89.8837 15.7266 89.8563 16.133 89.5657 16.2904L89.5452 16.3015C88.5978 16.8178 87.3776 17.2815 86.2435 17.5528C85.253 17.789 85.253 17.789 84.4922 17.6315C82.0805 17.159 79.6831 15.8028 77.1422 13.4753C75.8072 12.2678 74.7736 11.209 72.6777 8.92526C69.7205 5.70526 68.0122 4.06901 66.3039 2.80026L65.8703 2.47931C65.596 2.27634 65.6125 1.86088 65.9019 1.68026C66.7346 1.16401 68.084 0.639006 69.2324 0.394007C70.1942 0.192757 70.2086 0.192757 70.9407 0.350256C71.357 0.437756 71.9456 0.586506 72.2614 0.682756ZM114.696 0.499006C115.586 0.744005 116.907 1.30401 117.567 1.72401C117.827 1.88232 117.842 2.25379 117.596 2.43308L117.093 2.80026C115.342 4.08651 113.892 5.48651 110.174 9.49401C106.7 13.2478 105.15 14.639 103.039 15.9253C101.604 16.809 100.398 17.3078 99.0485 17.5878L98.9995 17.598C98.3988 17.7237 97.7774 17.7112 97.1823 17.5615C96.0052 17.2728 94.9716 16.8878 94.0098 16.3715C93.6441 16.177 93.6071 15.6672 93.9409 15.422L94.2682 15.1815C95.8185 14.0353 97.3546 12.5565 100.714 8.99526C104.848 4.61151 105.609 3.88526 107.561 2.50276C109.456 1.14651 112.313 0.0877552 113.59 0.262756C113.82 0.297756 114.323 0.402756 114.696 0.499006ZM127.774 0.551506C130.788 1.39151 133.473 3.40401 137.779 8.05026C141.813 12.399 143.478 14.0265 145.23 15.2865L145.322 15.3526C145.685 15.614 145.651 16.1652 145.258 16.3803C144.225 16.949 143.134 17.3515 142.014 17.5965C141.21 17.7628 141.153 17.7715 140.449 17.6315C139.33 17.4128 137.865 16.844 136.746 16.2053C134.391 14.849 132.611 13.239 128.305 8.57526C125.348 5.36401 122.878 3.08026 121.644 2.37151C121.443 2.24901 121.271 2.10901 121.271 2.04776C121.271 1.90776 123.266 0.927755 124.041 0.682756C125.089 0.359007 126.037 0.201506 126.525 0.262756C126.769 0.297756 127.329 0.429007 127.774 0.551506Z" fill="white"/>
<path d="M183.583 0.0664272C183.64 0.101427 184.028 0.162678 184.444 0.197678C184.861 0.223928 185.679 0.381428 186.268 0.530178C189.311 1.30018 192.01 3.26893 196.173 7.71393C200.953 12.8239 202.03 13.8827 203.91 15.2477C205.647 16.5077 207.226 17.2689 209.021 17.6889C209.825 17.8814 210.097 17.8902 212.753 17.8902C215.926 17.8902 216.615 17.8114 218.093 17.2514C219.371 16.7614 219.357 16.7702 219.888 17.0152C221.496 17.7502 222.902 17.9514 226.247 17.9164C228.601 17.8902 228.731 17.8814 229.836 17.6189C233.167 16.8139 235.794 14.8714 240.746 9.55143C243.258 6.84768 244.708 5.37768 245.857 4.34518C247.192 3.16393 247.263 3.11143 247.407 3.21643C248.197 3.75018 250.637 6.10393 252.733 8.37018C255.288 11.1177 256.279 12.1414 257.542 13.3139C260.169 15.7639 262.38 17.0764 264.892 17.6627C265.768 17.8639 266.098 17.8902 268.237 17.9164C271.567 17.9514 272.716 17.7939 274.596 17.0589L274.673 17.0285C275.065 16.8743 275.502 16.8821 275.888 17.0502C277.482 17.7414 278.257 17.8727 281.228 17.9077C284.114 17.9427 285.162 17.8377 286.597 17.3827C289.698 16.3852 291.909 14.6527 296.976 9.24518C298.512 7.60893 300.177 5.87643 300.665 5.39518C301.728 4.36268 303.12 3.16393 303.264 3.16393C303.551 3.16393 306.149 5.62268 308.288 7.93268C313.427 13.4714 315.021 14.9239 317.504 16.3327C318.725 17.0239 319.873 17.4702 321.05 17.7152C322.127 17.9427 326.405 18.0039 327.783 17.8114C328.759 17.6802 329.893 17.3564 330.668 17.0064C331.113 16.8052 331.185 16.7964 331.486 16.9102C333.884 17.8202 334.228 17.8814 337.142 17.9164C338.449 17.9339 339.899 17.8989 340.372 17.8552C342.77 17.6014 345.368 16.3939 347.722 14.4339C348.756 13.5852 350.292 12.0627 352.144 10.0764C356.379 5.53518 358.058 3.92518 359.881 2.61268C361.805 1.24768 364.188 0.311428 365.982 0.215178C366.471 0.188929 366.901 0.127678 366.959 0.0751781C367.059 -0.0210724 365.58 0.0664272 364.303 0.241428C360.944 0.696428 357.829 2.16643 354.656 4.78268C353.307 5.89393 352.144 7.01393 349.474 9.74393C345.756 13.5589 344.535 14.6614 342.669 15.8427C341.119 16.8314 339.626 17.4439 338.19 17.6802C337.674 17.7677 337.458 17.7502 336.798 17.6102C335.75 17.3914 334.53 16.9277 333.554 16.3939L333.26 16.2313C333.029 16.1033 333.01 15.7787 333.223 15.6239C335.262 14.1452 336.64 12.8327 340.372 8.85143C344.205 4.75643 345.612 3.47018 347.765 2.07893C349.33 1.06393 351.527 0.293928 353.077 0.215178C353.551 0.188929 353.981 0.127678 354.024 0.0926781C354.139 -0.0210724 353.565 -0.00357246 352.144 0.145178C348.828 0.495178 345.871 1.67643 343.028 3.76768C341.033 5.23768 339.77 6.41018 336.152 10.1377C334.157 12.2027 332.75 13.5677 331.802 14.3377C331.343 14.7227 331.199 14.7927 331.027 14.7052C330.367 14.3727 328.142 12.1677 324.151 7.88893C320.131 3.55768 317.791 1.74643 314.906 0.713928C313.37 0.162678 312.624 0.0751781 309.652 0.0751781C306.637 0.0839272 305.833 0.197678 304.211 0.827679L304.1 0.871569C303.545 1.09053 302.927 1.08734 302.374 0.862679C301.914 0.670177 301.067 0.416428 300.493 0.302677C299.531 0.0926781 299.273 0.0839272 296.804 0.0839272C293.66 0.0839272 292.914 0.188929 291.134 0.888927C288.349 2.00893 286.138 3.79393 281.803 8.46643C278.415 12.1064 276.706 13.8039 275.63 14.5827C275.416 14.739 275.126 14.739 274.912 14.5827C273.835 13.8039 272.127 12.1064 268.739 8.46643C263.93 3.28643 261.432 1.37893 258.26 0.495178C256.968 0.127678 255.877 0.0314274 253.235 0.0576782C251.355 0.0751781 250.953 0.101427 250.048 0.293928C249.474 0.416428 248.627 0.678928 248.154 0.871428L247.776 1.02499C247.467 1.15031 247.121 1.14223 246.818 1.00268C246.043 0.643929 244.378 0.206429 243.459 0.118927C243 0.0751781 241.607 0.0489273 240.373 0.0664272C238.535 0.0839272 237.976 0.127678 237.215 0.276428C235.851 0.556427 234.717 1.01143 233.296 1.84268C230.884 3.26893 229.463 4.55518 225.041 9.31518C222.788 11.7564 221.18 13.3489 220.06 14.2764L219.865 14.4405C219.605 14.6586 219.225 14.6558 218.969 14.4339C218.151 13.7514 216.816 12.4214 214.648 10.1202C210.973 6.23518 209.566 4.92268 207.499 3.47018C205.303 1.92143 203.106 0.950178 200.68 0.460178C199.561 0.232677 197.551 0.00517845 196.675 0.0139275C196.13 0.0226784 196.776 0.162678 197.608 0.215178C198.685 0.293928 200.479 0.845179 201.7 1.46643C204.269 2.79643 206.064 4.39768 211.246 9.98893C213.241 12.1414 215.337 14.1364 216.514 15.0114C216.888 15.2914 217.333 15.6152 217.49 15.7377C217.626 15.8408 217.611 16.0489 217.462 16.1314L216.988 16.3939C216.041 16.9189 214.591 17.4527 213.6 17.6452C212.897 17.7852 212.839 17.7764 212.035 17.6102C210.743 17.3302 209.724 16.9189 208.447 16.1577C206.48 14.9939 205.102 13.7427 201.197 9.59518C200.063 8.38768 198.685 6.97018 198.139 6.44518C194.421 2.86643 190.804 0.897678 186.842 0.285177C185.679 0.110178 183.396 -0.0473213 183.583 0.0664272ZM242.139 0.477678C243.287 0.775177 245.699 1.85143 245.699 2.07018C245.699 2.12268 245.526 2.26268 245.326 2.38518C244.12 3.06768 241.593 5.42143 238.665 8.58893C234.2 13.4189 232.578 14.8802 230.152 16.2539C228.932 16.9364 227.898 17.3477 226.692 17.6102C225.874 17.7764 225.831 17.7764 225.07 17.6364C224.051 17.4439 222.902 17.0152 221.768 16.4114C221.352 16.1897 221.312 15.6076 221.696 15.3319L221.74 15.3002C223.118 14.2939 224.984 12.5614 227.18 10.2077C230.583 6.55893 231.329 5.78893 232.564 4.65143C235.219 2.20143 237.631 0.818928 240.057 0.363928C240.904 0.206429 241.134 0.223928 242.139 0.477678ZM255.834 0.696428C258.518 1.52768 261.375 3.74143 265.509 8.19518C269.859 12.8677 270.993 13.9527 273.189 15.5452C273.456 15.7403 273.429 16.1467 273.138 16.3041L273.118 16.3152C272.17 16.8314 270.95 17.2952 269.816 17.5664C268.825 17.8027 268.825 17.8027 268.064 17.6452C265.653 17.1727 263.255 15.8164 260.714 13.4889C259.379 12.2814 258.346 11.2227 256.25 8.93893C253.293 5.71893 251.584 4.08268 249.876 2.81393L249.443 2.49298C249.168 2.29001 249.185 1.87455 249.474 1.69393C250.307 1.17768 251.656 0.652678 252.805 0.407679C253.766 0.206429 253.781 0.206429 254.513 0.363928C254.929 0.451427 255.518 0.600178 255.834 0.696428ZM298.268 0.512678C299.158 0.757677 300.479 1.31768 301.139 1.73768C301.399 1.89599 301.414 2.26746 301.169 2.44676L300.665 2.81393C298.914 4.10018 297.464 5.50018 293.746 9.50768C290.272 13.2614 288.722 14.6527 286.612 15.9389C285.176 16.8227 283.97 17.3214 282.621 17.6014L282.572 17.6117C281.971 17.7374 281.35 17.7249 280.755 17.5752C279.577 17.2864 278.544 16.9014 277.582 16.3852C277.216 16.1906 277.179 15.6809 277.513 15.4356L277.84 15.1952C279.391 14.0489 280.927 12.5702 284.286 9.00893C288.42 4.62518 289.181 3.89893 291.134 2.51643C293.028 1.16018 295.885 0.101427 297.163 0.276428C297.392 0.311428 297.895 0.416428 298.268 0.512678ZM311.346 0.565178C314.361 1.40518 317.045 3.41768 321.352 8.06393C325.385 12.4127 327.051 14.0402 328.802 15.3002L328.894 15.3663C329.257 15.6277 329.223 16.1789 328.831 16.3939C327.797 16.9627 326.706 17.3652 325.586 17.6102C324.783 17.7764 324.725 17.7852 324.022 17.6452C322.902 17.4264 321.438 16.8577 320.318 16.2189C317.964 14.8627 316.184 13.2527 311.877 8.58893C308.92 5.37768 306.451 3.09393 305.216 2.38518C305.015 2.26268 304.843 2.12268 304.843 2.06143C304.843 1.92143 306.838 0.941427 307.613 0.696428C308.661 0.372679 309.609 0.215178 310.097 0.276428C310.341 0.311428 310.901 0.442678 311.346 0.565178Z" fill="white"/>
<path d="M367.333 0.0664272C367.39 0.101427 367.778 0.162678 368.194 0.197678C368.611 0.223928 369.429 0.381428 370.018 0.530178C373.061 1.30018 375.76 3.26893 379.923 7.71393C384.703 12.8239 385.78 13.8827 387.66 15.2477C389.397 16.5077 390.976 17.2689 392.771 17.6889C393.575 17.8814 393.847 17.8902 396.503 17.8902C399.676 17.8902 400.365 17.8114 401.843 17.2514C403.121 16.7614 403.107 16.7702 403.638 17.0152C405.246 17.7502 406.652 17.9514 409.997 17.9164C412.351 17.8902 412.481 17.8814 413.586 17.6189C416.917 16.8139 419.544 14.8714 424.496 9.55143C427.008 6.84768 428.458 5.37768 429.607 4.34518C430.942 3.16393 431.013 3.11143 431.157 3.21643C431.947 3.75018 434.387 6.10393 436.483 8.37018C439.038 11.1177 440.029 12.1414 441.292 13.3139C443.919 15.7639 446.13 17.0764 448.642 17.6627C449.518 17.8639 449.848 17.8902 451.987 17.9164C455.317 17.9514 456.466 17.7939 458.346 17.0589L458.423 17.0285C458.815 16.8743 459.252 16.8821 459.638 17.0502C461.232 17.7414 462.007 17.8727 464.978 17.9077C467.864 17.9427 468.912 17.8377 470.347 17.3827C473.448 16.3852 475.659 14.6527 480.726 9.24518C482.262 7.60893 483.927 5.87643 484.415 5.39518C485.478 4.36268 486.87 3.16393 487.014 3.16393C487.301 3.16393 489.899 5.62268 492.038 7.93268C497.177 13.4714 498.771 14.9239 501.254 16.3327C502.475 17.0239 503.623 17.4702 504.8 17.7152C505.877 17.9427 510.155 18.0039 511.533 17.8114C512.509 17.6802 513.643 17.3564 514.418 17.0064C514.863 16.8052 514.935 16.7964 515.236 16.9102C517.634 17.8202 517.978 17.8814 520.892 17.9164C522.199 17.9339 523.649 17.8989 524.122 17.8552C526.52 17.6014 529.118 16.3939 531.472 14.4339C532.506 13.5852 534.042 12.0627 535.894 10.0764C540.129 5.53518 541.808 3.92518 543.631 2.61268C545.555 1.24768 547.938 0.311428 549.732 0.215178C550.221 0.188929 550.651 0.127678 550.709 0.0751781C550.809 -0.0210724 549.33 0.0664272 548.053 0.241428C544.694 0.696428 541.579 2.16643 538.406 4.78268C537.057 5.89393 535.894 7.01393 533.224 9.74393C529.506 13.5589 528.285 14.6614 526.419 15.8427C524.869 16.8314 523.376 17.4439 521.94 17.6802C521.424 17.7677 521.208 17.7502 520.548 17.6102C519.5 17.3914 518.28 16.9277 517.304 16.3939L517.01 16.2313C516.779 16.1033 516.76 15.7787 516.973 15.6239C519.012 14.1452 520.39 12.8327 524.122 8.85143C527.955 4.75643 529.362 3.47018 531.515 2.07893C533.08 1.06393 535.277 0.293928 536.827 0.215178C537.301 0.188929 537.731 0.127678 537.774 0.0926781C537.889 -0.0210724 537.315 -0.00357246 535.894 0.145178C532.578 0.495178 529.621 1.67643 526.778 3.76768C524.783 5.23768 523.52 6.41018 519.902 10.1377C517.907 12.2027 516.5 13.5677 515.552 14.3377C515.093 14.7227 514.949 14.7927 514.777 14.7052C514.117 14.3727 511.892 12.1677 507.901 7.88893C503.881 3.55768 501.541 1.74643 498.656 0.713928C497.12 0.162678 496.374 0.0751781 493.402 0.0751781C490.387 0.0839272 489.583 0.197678 487.961 0.827679L487.85 0.871569C487.295 1.09053 486.677 1.08734 486.124 0.862679C485.664 0.670177 484.817 0.416428 484.243 0.302677C483.281 0.0926781 483.023 0.0839272 480.554 0.0839272C477.41 0.0839272 476.664 0.188929 474.884 0.888927C472.099 2.00893 469.888 3.79393 465.553 8.46643C462.165 12.1064 460.456 13.8039 459.38 14.5827C459.166 14.739 458.876 14.739 458.662 14.5827C457.585 13.8039 455.877 12.1064 452.489 8.46643C447.68 3.28643 445.182 1.37893 442.01 0.495178C440.718 0.127678 439.627 0.0314274 436.985 0.0576782C435.105 0.0751781 434.703 0.101427 433.798 0.293928C433.224 0.416428 432.377 0.678928 431.904 0.871428L431.526 1.02499C431.217 1.15031 430.871 1.14223 430.568 1.00268C429.793 0.643929 428.128 0.206429 427.209 0.118927C426.75 0.0751781 425.357 0.0489273 424.123 0.0664272C422.285 0.0839272 421.726 0.127678 420.965 0.276428C419.601 0.556427 418.467 1.01143 417.046 1.84268C414.634 3.26893 413.213 4.55518 408.791 9.31518C406.538 11.7564 404.93 13.3489 403.81 14.2764L403.615 14.4405C403.355 14.6586 402.975 14.6558 402.719 14.4339C401.901 13.7514 400.566 12.4214 398.398 10.1202C394.723 6.23518 393.316 4.92268 391.249 3.47018C389.053 1.92143 386.856 0.950178 384.43 0.460178C383.311 0.232677 381.301 0.00517845 380.425 0.0139275C379.88 0.0226784 380.526 0.162678 381.358 0.215178C382.435 0.293928 384.229 0.845179 385.45 1.46643C388.019 2.79643 389.814 4.39768 394.996 9.98893C396.991 12.1414 399.087 14.1364 400.264 15.0114C400.638 15.2914 401.083 15.6152 401.24 15.7377C401.376 15.8408 401.361 16.0489 401.212 16.1314L400.738 16.3939C399.791 16.9189 398.341 17.4527 397.35 17.6452C396.647 17.7852 396.589 17.7764 395.785 17.6102C394.493 17.3302 393.474 16.9189 392.197 16.1577C390.23 14.9939 388.852 13.7427 384.947 9.59518C383.813 8.38768 382.435 6.97018 381.889 6.44518C378.171 2.86643 374.554 0.897678 370.592 0.285177C369.429 0.110178 367.146 -0.0473213 367.333 0.0664272ZM425.889 0.477678C427.037 0.775177 429.449 1.85143 429.449 2.07018C429.449 2.12268 429.276 2.26268 429.076 2.38518C427.87 3.06768 425.343 5.42143 422.415 8.58893C417.95 13.4189 416.328 14.8802 413.902 16.2539C412.682 16.9364 411.648 17.3477 410.442 17.6102C409.624 17.7764 409.581 17.7764 408.82 17.6364C407.801 17.4439 406.652 17.0152 405.518 16.4114C405.102 16.1897 405.062 15.6076 405.446 15.3319L405.49 15.3002C406.868 14.2939 408.734 12.5614 410.93 10.2077C414.333 6.55893 415.079 5.78893 416.314 4.65143C418.969 2.20143 421.381 0.818928 423.807 0.363928C424.654 0.206429 424.884 0.223928 425.889 0.477678ZM439.584 0.696428C442.268 1.52768 445.125 3.74143 449.259 8.19518C453.609 12.8677 454.743 13.9527 456.939 15.5452C457.206 15.7403 457.179 16.1467 456.888 16.3041L456.868 16.3152C455.92 16.8314 454.7 17.2952 453.566 17.5664C452.575 17.8027 452.575 17.8027 451.814 17.6452C449.403 17.1727 447.005 15.8164 444.464 13.4889C443.129 12.2814 442.096 11.2227 440 8.93893C437.043 5.71893 435.334 4.08268 433.626 2.81393L433.193 2.49298C432.918 2.29001 432.935 1.87455 433.224 1.69393C434.057 1.17768 435.406 0.652678 436.555 0.407679C437.516 0.206429 437.531 0.206429 438.263 0.363928C438.679 0.451427 439.268 0.600178 439.584 0.696428ZM482.018 0.512678C482.908 0.757677 484.229 1.31768 484.889 1.73768C485.149 1.89599 485.164 2.26746 484.919 2.44676L484.415 2.81393C482.664 4.10018 481.214 5.50018 477.496 9.50768C474.022 13.2614 472.472 14.6527 470.362 15.9389C468.926 16.8227 467.72 17.3214 466.371 17.6014L466.322 17.6117C465.721 17.7374 465.1 17.7249 464.505 17.5752C463.327 17.2864 462.294 16.9014 461.332 16.3852C460.966 16.1906 460.929 15.6809 461.263 15.4356L461.59 15.1952C463.141 14.0489 464.677 12.5702 468.036 9.00893C472.17 4.62518 472.931 3.89893 474.884 2.51643C476.778 1.16018 479.635 0.101427 480.913 0.276428C481.142 0.311428 481.645 0.416428 482.018 0.512678ZM495.096 0.565178C498.111 1.40518 500.795 3.41768 505.102 8.06393C509.135 12.4127 510.801 14.0402 512.552 15.3002L512.644 15.3663C513.007 15.6277 512.973 16.1789 512.581 16.3939C511.547 16.9627 510.456 17.3652 509.336 17.6102C508.533 17.7764 508.475 17.7852 507.772 17.6452C506.652 17.4264 505.188 16.8577 504.068 16.2189C501.714 14.8627 499.934 13.2527 495.627 8.58893C492.67 5.37768 490.201 3.09393 488.966 2.38518C488.765 2.26268 488.593 2.12268 488.593 2.06143C488.593 1.92143 490.588 0.941427 491.363 0.696428C492.411 0.372679 493.359 0.215178 493.847 0.276428C494.091 0.311428 494.651 0.442678 495.096 0.565178Z" fill="white"/>
<path d="M550.905 0.078146C550.963 0.113146 551.35 0.174397 551.767 0.209396C552.183 0.235647 553.001 0.393147 553.59 0.541897C556.633 1.3119 559.332 3.28065 563.495 7.72565C568.275 12.8356 569.352 13.8944 571.233 15.2594C572.97 16.5194 574.549 17.2806 576.343 17.7006C577.147 17.8931 577.42 17.9019 580.075 17.9019C583.248 17.9019 583.937 17.8231 585.416 17.2631C586.693 16.7731 586.679 16.7819 587.21 17.0269C588.818 17.7619 590.225 17.9631 593.569 17.9281C595.924 17.9019 596.053 17.8931 597.158 17.6306C600.489 16.8256 603.116 14.8831 608.068 9.56315C610.581 6.8594 612.03 5.3894 613.179 4.3569C614.514 3.17565 614.586 3.12315 614.729 3.22815C615.519 3.7619 617.959 6.11565 620.055 8.3819C622.61 11.1294 623.601 12.1531 624.864 13.3256C627.491 15.7756 629.702 17.0881 632.214 17.6744C633.09 17.8756 633.42 17.9019 635.559 17.9281C638.889 17.9631 640.038 17.8056 641.918 17.0706L641.996 17.0403C642.387 16.886 642.824 16.8938 643.21 17.0619C644.804 17.7531 645.579 17.8844 648.551 17.9194C651.436 17.9544 652.484 17.8494 653.919 17.3944C657.02 16.3969 659.231 14.6644 664.298 9.2569C665.834 7.62065 667.5 5.88815 667.988 5.4069C669.05 4.3744 670.443 3.17565 670.586 3.17565C670.873 3.17565 673.471 5.6344 675.61 7.9444C680.75 13.4831 682.343 14.9356 684.827 16.3444C686.047 17.0356 687.195 17.4819 688.372 17.7269C689.449 17.9544 693.727 18.0156 695.105 17.8231C696.081 17.6919 697.215 17.3681 697.99 17.0181C698.435 16.8169 698.507 16.8081 698.809 16.9219C701.206 17.8319 701.551 17.8931 704.465 17.9281C705.771 17.9456 707.221 17.9106 707.695 17.8669C710.092 17.6131 712.69 16.4056 715.045 14.4456C716.078 13.5969 717.614 12.0744 719.466 10.0881C723.701 5.5469 725.381 3.9369 727.204 2.6244C729.127 1.2594 731.51 0.323147 733.305 0.226896C733.793 0.200647 734.223 0.139397 734.281 0.0868969C734.381 -0.00935364 732.903 0.078146 731.625 0.253147C728.266 0.708147 725.151 2.17815 721.978 4.7944C720.629 5.90565 719.466 7.02565 716.796 9.75565C713.078 13.5706 711.858 14.6731 709.992 15.8544C708.441 16.8431 706.948 17.4556 705.513 17.6919C704.996 17.7794 704.781 17.7619 704.12 17.6219C703.072 17.4031 701.852 16.9394 700.876 16.4056L700.582 16.243C700.351 16.115 700.332 15.7904 700.546 15.6356C702.584 14.1569 703.962 12.8444 707.695 8.86315C711.528 4.76815 712.934 3.4819 715.088 2.09065C716.652 1.07565 718.849 0.305647 720.399 0.226896C720.873 0.200647 721.304 0.139397 721.347 0.104397C721.462 -0.00935364 720.887 0.00814629 719.466 0.156897C716.15 0.506897 713.193 1.68815 710.35 3.7794C708.355 5.2494 707.092 6.4219 703.474 10.1494C701.479 12.2144 700.072 13.5794 699.125 14.3494C698.665 14.7344 698.522 14.8044 698.349 14.7169C697.689 14.3844 695.464 12.1794 691.473 7.90065C687.454 3.5694 685.114 1.75815 682.228 0.725647C680.692 0.174397 679.946 0.0868969 676.974 0.0868969C673.96 0.0956459 673.156 0.209396 671.534 0.839397L671.422 0.883287C670.867 1.10225 670.249 1.09906 669.696 0.874397C669.237 0.681896 668.39 0.428146 667.815 0.314396C666.854 0.104397 666.595 0.0956459 664.126 0.0956459C660.982 0.0956459 660.236 0.200647 658.456 0.900646C655.671 2.02065 653.46 3.80565 649.125 8.47815C645.737 12.1181 644.029 13.8156 642.952 14.5944C642.738 14.7507 642.448 14.7507 642.234 14.5944C641.158 13.8156 639.449 12.1181 636.061 8.47815C631.252 3.29815 628.755 1.39065 625.582 0.506897C624.29 0.139397 623.199 0.0431461 620.558 0.069397C618.677 0.0868969 618.275 0.113146 617.371 0.305647C616.796 0.428146 615.95 0.690647 615.476 0.883146L615.098 1.03671C614.789 1.16203 614.443 1.15395 614.141 1.0144C613.366 0.655647 611.7 0.218147 610.782 0.130646C610.322 0.0868969 608.93 0.0606461 607.695 0.078146C605.858 0.0956459 605.298 0.139397 604.537 0.288147C603.173 0.568146 602.039 1.02315 600.618 1.8544C598.206 3.28065 596.785 4.5669 592.364 9.3269C590.11 11.7681 588.502 13.3606 587.382 14.2881L587.187 14.4522C586.927 14.6703 586.548 14.6675 586.291 14.4456C585.473 13.7631 584.138 12.4331 581.97 10.1319C578.295 6.2469 576.889 4.9344 574.821 3.4819C572.625 1.93315 570.429 0.961897 568.003 0.471897C566.883 0.244396 564.873 0.0168972 563.997 0.0256462C563.452 0.0343971 564.098 0.174397 564.931 0.226896C566.007 0.305647 567.802 0.856897 569.022 1.47815C571.591 2.80815 573.386 4.4094 578.568 10.0006C580.564 12.1531 582.659 14.1481 583.837 15.0231C584.21 15.3031 584.655 15.6269 584.813 15.7494C584.948 15.8525 584.933 16.0606 584.784 16.1431L584.31 16.4056C583.363 16.9306 581.913 17.4644 580.922 17.6569C580.219 17.7969 580.162 17.7881 579.358 17.6219C578.066 17.3419 577.046 16.9306 575.769 16.1694C573.802 15.0056 572.424 13.7544 568.519 9.6069C567.385 8.3994 566.007 6.9819 565.462 6.4569C561.744 2.87815 558.126 0.909397 554.164 0.296896C553.001 0.121897 550.719 -0.0356026 550.905 0.078146ZM609.461 0.489397C610.609 0.786896 613.021 1.86315 613.021 2.0819C613.021 2.1344 612.849 2.2744 612.648 2.3969C611.442 3.0794 608.915 5.43315 605.987 8.60065C601.522 13.4306 599.9 14.8919 597.474 16.2656C596.254 16.9481 595.22 17.3594 594.014 17.6219C593.196 17.7881 593.153 17.7881 592.392 17.6481C591.373 17.4556 590.225 17.0269 589.091 16.4231C588.674 16.2014 588.635 15.6193 589.018 15.3436L589.062 15.3119C590.44 14.3056 592.306 12.5731 594.503 10.2194C597.905 6.57065 598.651 5.80065 599.886 4.66315C602.542 2.21315 604.953 0.830647 607.379 0.375647C608.226 0.218147 608.456 0.235647 609.461 0.489397ZM623.156 0.708147C625.84 1.5394 628.697 3.75315 632.831 8.2069C637.181 12.8794 638.315 13.9644 640.512 15.5569C640.778 15.752 640.751 16.1584 640.46 16.3158L640.44 16.3269C639.492 16.8431 638.272 17.3069 637.138 17.5781C636.148 17.8144 636.148 17.8144 635.387 17.6569C632.975 17.1844 630.578 15.8281 628.037 13.5006C626.702 12.2931 625.668 11.2344 623.572 8.95065C620.615 5.73065 618.907 4.0944 617.198 2.82565L616.765 2.5047C616.491 2.30173 616.507 1.88627 616.796 1.70565C617.629 1.1894 618.978 0.664396 620.127 0.419397C621.089 0.218147 621.103 0.218147 621.835 0.375647C622.252 0.463146 622.84 0.611897 623.156 0.708147ZM665.59 0.524397C666.48 0.769396 667.801 1.3294 668.461 1.7494C668.721 1.90771 668.737 2.27918 668.491 2.45848L667.988 2.82565C666.236 4.1119 664.786 5.5119 661.068 9.5194C657.594 13.2731 656.044 14.6644 653.934 15.9506C652.498 16.8344 651.292 17.3331 649.943 17.6131L649.894 17.6234C649.293 17.7491 648.672 17.7366 648.077 17.5869C646.9 17.2981 645.866 16.9131 644.904 16.3969C644.539 16.2024 644.502 15.6926 644.835 15.4474L645.163 15.2069C646.713 14.0606 648.249 12.5819 651.608 9.02065C655.743 4.6369 656.503 3.91065 658.456 2.52815C660.351 1.1719 663.207 0.113146 664.485 0.288147C664.715 0.323147 665.217 0.428146 665.59 0.524397ZM678.668 0.576897C681.683 1.4169 684.367 3.4294 688.674 8.07565C692.708 12.4244 694.373 14.0519 696.124 15.3119L696.216 15.378C696.58 15.6394 696.546 16.1906 696.153 16.4056C695.119 16.9744 694.028 17.3769 692.909 17.6219C692.105 17.7881 692.047 17.7969 691.344 17.6569C690.224 17.4381 688.76 16.8694 687.64 16.2306C685.286 14.8744 683.506 13.2644 679.199 8.60065C676.242 5.3894 673.773 3.10565 672.538 2.3969C672.337 2.2744 672.165 2.1344 672.165 2.07315C672.165 1.93315 674.161 0.953146 674.936 0.708147C675.984 0.384398 676.931 0.226896 677.419 0.288147C677.663 0.323147 678.223 0.454397 678.668 0.576897Z" fill="white"/>
<path d="M731.726 0.0527554C731.783 0.0877552 732.171 0.149006 732.587 0.184006C733.003 0.210257 733.822 0.367756 734.41 0.516506C737.453 1.28651 740.152 3.25526 744.315 7.70026C749.096 12.8103 750.172 13.869 752.053 15.234C753.79 16.494 755.369 17.2553 757.163 17.6753C757.967 17.8678 758.24 17.8765 760.896 17.8765C764.068 17.8765 764.757 17.7978 766.236 17.2378C767.514 16.7478 767.499 16.7565 768.03 17.0015C769.638 17.7365 771.045 17.9378 774.39 17.9028C776.744 17.8765 776.873 17.8678 777.979 17.6053C781.309 16.8003 783.936 14.8578 788.889 9.53776C791.401 6.83401 792.851 5.36401 793.999 4.33151C795.334 3.15026 795.406 3.09776 795.55 3.20276C796.339 3.73651 798.78 6.09026 800.875 8.35651C803.431 11.104 804.421 12.1278 805.685 13.3003C808.312 15.7503 810.522 17.0628 813.034 17.649C813.91 17.8503 814.24 17.8765 816.379 17.9028C819.71 17.9378 820.858 17.7803 822.739 17.0453L822.816 17.0149C823.208 16.8607 823.645 16.8684 824.031 17.0365C825.624 17.7278 826.399 17.859 829.371 17.894C832.256 17.929 833.304 17.824 834.74 17.369C837.841 16.3715 840.051 14.639 845.119 9.23151C846.655 7.59526 848.32 5.86276 848.808 5.38151C849.87 4.34901 851.263 3.15026 851.406 3.15026C851.693 3.15026 854.292 5.60901 856.431 7.91901C861.57 13.4578 863.163 14.9103 865.647 16.319C866.867 17.0103 868.016 17.4565 869.193 17.7015C870.269 17.929 874.547 17.9903 875.925 17.7978C876.902 17.6665 878.036 17.3428 878.811 16.9928C879.256 16.7915 879.328 16.7828 879.629 16.8965C882.026 17.8065 882.371 17.8678 885.285 17.9028C886.591 17.9203 888.041 17.8853 888.515 17.8415C890.912 17.5878 893.511 16.3803 895.865 14.4203C896.899 13.5715 898.435 12.049 900.286 10.0628C904.521 5.52151 906.201 3.91151 908.024 2.59901C909.948 1.23401 912.331 0.297756 914.125 0.201506C914.613 0.175257 915.044 0.114006 915.101 0.0615063C915.202 -0.0347443 913.723 0.0527554 912.445 0.227757C909.086 0.682756 905.971 2.15276 902.799 4.76901C901.449 5.88026 900.286 7.00026 897.616 9.73026C893.898 13.5453 892.678 14.6478 890.812 15.829C889.261 16.8178 887.769 17.4303 886.333 17.6665C885.816 17.754 885.601 17.7365 884.941 17.5965C883.893 17.3778 882.672 16.914 881.696 16.3803L881.403 16.2176C881.172 16.0897 881.152 15.7651 881.366 15.6103C883.404 14.1315 884.783 12.819 888.515 8.83776C892.348 4.74276 893.755 3.45651 895.908 2.06526C897.473 1.05026 899.669 0.280256 901.22 0.201506C901.693 0.175257 902.124 0.114006 902.167 0.0790062C902.282 -0.0347443 901.708 -0.0172443 900.286 0.131506C896.97 0.481506 894.013 1.66276 891.171 3.75401C889.175 5.22401 887.912 6.39651 884.295 10.124C882.299 12.189 880.892 13.554 879.945 14.324C879.485 14.709 879.342 14.779 879.17 14.6915C878.509 14.359 876.284 12.154 872.293 7.87526C868.274 3.54401 865.934 1.73276 863.049 0.700256C861.513 0.149006 860.766 0.0615063 857.795 0.0615063C854.78 0.0702553 853.976 0.184006 852.354 0.814007L852.243 0.857897C851.687 1.07685 851.069 1.07367 850.516 0.849007C850.057 0.656506 849.21 0.402756 848.636 0.289005C847.674 0.0790062 847.416 0.0702553 844.946 0.0702553C841.803 0.0702553 841.056 0.175257 839.276 0.875256C836.491 1.99526 834.28 3.78026 829.945 8.45276C826.557 12.0928 824.849 13.7903 823.772 14.569C823.559 14.7253 823.268 14.7253 823.055 14.569C821.978 13.7903 820.27 12.0928 816.882 8.45276C812.073 3.27276 809.575 1.36526 806.402 0.481506C805.11 0.114006 804.019 0.0177555 801.378 0.0440063C799.497 0.0615063 799.095 0.0877552 798.191 0.280256C797.617 0.402756 796.77 0.665257 796.296 0.857756L795.918 1.01132C795.61 1.13664 795.263 1.12856 794.961 0.989006C794.186 0.630257 792.521 0.192757 791.602 0.105255C791.143 0.0615063 789.75 0.0352554 788.515 0.0527554C786.678 0.0702553 786.118 0.114006 785.357 0.262756C783.994 0.542755 782.859 0.997755 781.438 1.82901C779.027 3.25526 777.605 4.54151 773.184 9.30151C770.93 11.7428 769.322 13.3353 768.203 14.2628L768.007 14.4268C767.748 14.6449 767.368 14.6421 767.112 14.4203C766.293 13.7378 764.958 12.4078 762.791 10.1065C759.116 6.22151 757.709 4.90901 755.642 3.45651C753.445 1.90776 751.249 0.936506 748.823 0.446507C747.703 0.219006 745.693 -0.00849342 744.818 0.000255585C744.272 0.0090065 744.918 0.149006 745.751 0.201506C746.827 0.280256 748.622 0.831507 749.842 1.45276C752.412 2.78276 754.206 4.38401 759.388 9.97526C761.384 12.1278 763.48 14.1228 764.657 14.9978C765.03 15.2778 765.475 15.6015 765.633 15.724C765.768 15.8271 765.753 16.0352 765.604 16.1177L765.131 16.3803C764.183 16.9053 762.733 17.439 761.743 17.6315C761.039 17.7715 760.982 17.7628 760.178 17.5965C758.886 17.3165 757.867 16.9053 756.589 16.144C754.622 14.9803 753.244 13.729 749.34 9.58151C748.206 8.37401 746.827 6.95651 746.282 6.43151C742.564 2.85276 738.946 0.884007 734.984 0.271505C733.822 0.0965061 731.539 -0.0609932 731.726 0.0527554ZM790.281 0.464006C791.43 0.761505 793.841 1.83776 793.841 2.05651C793.841 2.10901 793.669 2.24901 793.468 2.37151C792.262 3.05401 789.736 5.40776 786.807 8.57526C782.343 13.4053 780.721 14.8665 778.294 16.2403C777.074 16.9228 776.041 17.334 774.835 17.5965C774.017 17.7628 773.973 17.7628 773.213 17.6228C772.193 17.4303 771.045 17.0015 769.911 16.3978C769.494 16.176 769.455 15.5939 769.838 15.3182L769.882 15.2865C771.26 14.2803 773.127 12.5478 775.323 10.194C778.725 6.54526 779.472 5.77526 780.706 4.63776C783.362 2.18776 785.774 0.805256 788.2 0.350256C789.047 0.192757 789.276 0.210257 790.281 0.464006ZM803.976 0.682756C806.661 1.51401 809.517 3.72776 813.652 8.18151C818.001 12.854 819.135 13.939 821.332 15.5315C821.599 15.7266 821.571 16.133 821.281 16.2904L821.26 16.3015C820.313 16.8178 819.092 17.2815 817.958 17.5528C816.968 17.789 816.968 17.789 816.207 17.6315C813.795 17.159 811.398 15.8028 808.857 13.4753C807.522 12.2678 806.488 11.209 804.393 8.92526C801.435 5.70526 799.727 4.06901 798.019 2.80026L797.585 2.47931C797.311 2.27634 797.327 1.86088 797.617 1.68026C798.449 1.16401 799.799 0.639006 800.947 0.394007C801.909 0.192757 801.923 0.192757 802.656 0.350256C803.072 0.437756 803.66 0.586506 803.976 0.682756ZM846.411 0.499006C847.301 0.744005 848.621 1.30401 849.282 1.72401C849.542 1.88232 849.557 2.25379 849.311 2.43308L848.808 2.80026C847.057 4.08651 845.607 5.48651 841.889 9.49401C838.415 13.2478 836.864 14.639 834.754 15.9253C833.319 16.809 832.113 17.3078 830.763 17.5878L830.714 17.598C830.114 17.7237 829.492 17.7112 828.897 17.5615C827.72 17.2728 826.686 16.8878 825.725 16.3715C825.359 16.177 825.322 15.6672 825.656 15.422L825.983 15.1815C827.533 14.0353 829.069 12.5565 832.429 8.99526C836.563 4.61151 837.324 3.88526 839.276 2.50276C841.171 1.14651 844.028 0.0877552 845.305 0.262756C845.535 0.297756 846.037 0.402756 846.411 0.499006ZM859.488 0.551506C862.503 1.39151 865.188 3.40401 869.494 8.05026C873.528 12.399 875.193 14.0265 876.945 15.2865L877.036 15.3526C877.4 15.614 877.366 16.1652 876.973 16.3803C875.94 16.949 874.849 17.3515 873.729 17.5965C872.925 17.7628 872.868 17.7715 872.164 17.6315C871.045 17.4128 869.58 16.844 868.461 16.2053C866.106 14.849 864.326 13.239 860.02 8.57526C857.062 5.36401 854.593 3.08026 853.359 2.37151C853.158 2.24901 852.985 2.10901 852.985 2.04776C852.985 1.90776 854.981 0.927755 855.756 0.682756C856.804 0.359007 857.751 0.201506 858.24 0.262756C858.484 0.297756 859.043 0.429007 859.488 0.551506Z" fill="white"/>
<path d="M915.298 0.0664272C915.355 0.101427 915.743 0.162678 916.159 0.197678C916.576 0.223928 917.394 0.381428 917.982 0.530178C921.026 1.30018 923.724 3.26893 927.888 7.71393C932.668 12.8239 933.745 13.8827 935.625 15.2477C937.362 16.5077 938.941 17.2689 940.736 17.6889C941.54 17.8814 941.812 17.8902 944.468 17.8902C947.641 17.8902 948.33 17.8114 949.808 17.2514C951.086 16.7614 951.071 16.7702 951.603 17.0152C953.21 17.7502 954.617 17.9514 957.962 17.9164C960.316 17.8902 960.446 17.8814 961.551 17.6189C964.881 16.8139 967.508 14.8714 972.461 9.55143C974.973 6.84768 976.423 5.37768 977.571 4.34518C978.907 3.16393 978.978 3.11143 979.122 3.21643C979.911 3.75018 982.352 6.10393 984.448 8.37018C987.003 11.1177 987.993 12.1414 989.257 13.3139C991.884 15.7639 994.095 17.0764 996.607 17.6627C997.482 17.8639 997.813 17.8902 999.952 17.9164C1003.28 17.9514 1004.43 17.7939 1006.31 17.0589L1006.39 17.0285C1006.78 16.8743 1007.22 16.8821 1007.6 17.0502C1009.2 17.7414 1009.97 17.8727 1012.94 17.9077C1015.83 17.9427 1016.88 17.8377 1018.31 17.3827C1021.41 16.3852 1023.62 14.6527 1028.69 9.24518C1030.23 7.60893 1031.89 5.87643 1032.38 5.39518C1033.44 4.36268 1034.84 3.16393 1034.98 3.16393C1035.27 3.16393 1037.86 5.62268 1040 7.93268C1045.14 13.4714 1046.74 14.9239 1049.22 16.3327C1050.44 17.0239 1051.59 17.4702 1052.76 17.7152C1053.84 17.9427 1058.12 18.0039 1059.5 17.8114C1060.47 17.6802 1061.61 17.3564 1062.38 17.0064C1062.83 16.8052 1062.9 16.7964 1063.2 16.9102C1065.6 17.8202 1065.94 17.8814 1068.86 17.9164C1070.16 17.9339 1071.61 17.8989 1072.09 17.8552C1074.48 17.6014 1077.08 16.3939 1079.44 14.4339C1080.47 13.5852 1082.01 12.0627 1083.86 10.0764C1088.09 5.53518 1089.77 3.92518 1091.6 2.61268C1093.52 1.24768 1095.9 0.311428 1097.7 0.215178C1098.19 0.188929 1098.62 0.127678 1098.67 0.0751781C1098.77 -0.0210724 1097.3 0.0664272 1096.02 0.241428C1092.66 0.696428 1089.54 2.16643 1086.37 4.78268C1085.02 5.89393 1083.86 7.01393 1081.19 9.74393C1077.47 13.5589 1076.25 14.6614 1074.38 15.8427C1072.83 16.8314 1071.34 17.4439 1069.91 17.6802C1069.39 17.7677 1069.17 17.7502 1068.51 17.6102C1067.46 17.3914 1066.24 16.9277 1065.27 16.3939L1064.97 16.2313C1064.74 16.1033 1064.72 15.7787 1064.94 15.6239C1066.98 14.1452 1068.35 12.8327 1072.09 8.85143C1075.92 4.75643 1077.33 3.47018 1079.48 2.07893C1081.05 1.06393 1083.24 0.293928 1084.79 0.215178C1085.27 0.188929 1085.7 0.127678 1085.74 0.0926781C1085.85 -0.0210724 1085.28 -0.00357246 1083.86 0.145178C1080.54 0.495178 1077.59 1.67643 1074.74 3.76768C1072.75 5.23768 1071.48 6.41018 1067.87 10.1377C1065.87 12.2027 1064.46 13.5677 1063.52 14.3377C1063.06 14.7227 1062.91 14.7927 1062.74 14.7052C1062.08 14.3727 1059.86 12.1677 1055.87 7.88893C1051.85 3.55768 1049.51 1.74643 1046.62 0.713928C1045.08 0.162678 1044.34 0.0751781 1041.37 0.0751781C1038.35 0.0839272 1037.55 0.197678 1035.93 0.827679L1035.81 0.871569C1035.26 1.09053 1034.64 1.08734 1034.09 0.862679C1033.63 0.670177 1032.78 0.416428 1032.21 0.302677C1031.25 0.0926781 1030.99 0.0839272 1028.52 0.0839272C1025.37 0.0839272 1024.63 0.188929 1022.85 0.888927C1020.06 2.00893 1017.85 3.79393 1013.52 8.46643C1010.13 12.1064 1008.42 13.8039 1007.34 14.5827C1007.13 14.739 1006.84 14.739 1006.63 14.5827C1005.55 13.8039 1003.84 12.1064 1000.45 8.46643C995.645 3.28643 993.147 1.37893 989.975 0.495178C988.683 0.127678 987.592 0.0314274 984.95 0.0576782C983.07 0.0751781 982.668 0.101427 981.763 0.293928C981.189 0.416428 980.342 0.678928 979.868 0.871428L979.49 1.02499C979.182 1.15031 978.836 1.14223 978.533 1.00268C977.758 0.643929 976.093 0.206429 975.174 0.118927C974.715 0.0751781 973.322 0.0489273 972.088 0.0664272C970.25 0.0839272 969.69 0.127678 968.93 0.276428C967.566 0.556427 966.432 1.01143 965.011 1.84268C962.599 3.26893 961.178 4.55518 956.756 9.31518C954.502 11.7564 952.895 13.3489 951.775 14.2764L951.58 14.4405C951.32 14.6586 950.94 14.6558 950.684 14.4339C949.866 13.7514 948.531 12.4214 946.363 10.1202C942.688 6.23518 941.281 4.92268 939.214 3.47018C937.018 1.92143 934.821 0.950178 932.395 0.460178C931.275 0.232677 929.266 0.00517845 928.39 0.0139275C927.844 0.0226784 928.49 0.162678 929.323 0.215178C930.4 0.293928 932.194 0.845179 933.414 1.46643C935.984 2.79643 937.778 4.39768 942.961 9.98893C944.956 12.1414 947.052 14.1364 948.229 15.0114C948.602 15.2914 949.047 15.6152 949.205 15.7377C949.341 15.8408 949.325 16.0489 949.177 16.1314L948.703 16.3939C947.755 16.9189 946.305 17.4527 945.315 17.6452C944.612 17.7852 944.554 17.7764 943.75 17.6102C942.458 17.3302 941.439 16.9189 940.161 16.1577C938.195 14.9939 936.817 13.7427 932.912 9.59518C931.778 8.38768 930.4 6.97018 929.854 6.44518C926.136 2.86643 922.519 0.897678 918.557 0.285177C917.394 0.110178 915.111 -0.0473213 915.298 0.0664272ZM973.853 0.477678C975.002 0.775177 977.414 1.85143 977.414 2.07018C977.414 2.12268 977.241 2.26268 977.04 2.38518C975.834 3.06768 973.308 5.42143 970.379 8.58893C965.915 13.4189 964.293 14.8802 961.867 16.2539C960.647 16.9364 959.613 17.3477 958.407 17.6102C957.589 17.7764 957.546 17.7764 956.785 17.6364C955.766 17.4439 954.617 17.0152 953.483 16.4114C953.066 16.1897 953.027 15.6076 953.41 15.3319L953.454 15.3002C954.833 14.2939 956.699 12.5614 958.895 10.2077C962.297 6.55893 963.044 5.78893 964.278 4.65143C966.934 2.20143 969.346 0.818928 971.772 0.363928C972.619 0.206429 972.849 0.223928 973.853 0.477678ZM987.548 0.696428C990.233 1.52768 993.09 3.74143 997.224 8.19518C1001.57 12.8677 1002.71 13.9527 1004.9 15.5452C1005.17 15.7403 1005.14 16.1467 1004.85 16.3041L1004.83 16.3152C1003.88 16.8314 1002.66 17.2952 1001.53 17.5664C1000.54 17.8027 1000.54 17.8027 999.779 17.6452C997.368 17.1727 994.97 15.8164 992.429 13.4889C991.094 12.2814 990.061 11.2227 987.965 8.93893C985.008 5.71893 983.299 4.08268 981.591 2.81393L981.157 2.49298C980.883 2.29001 980.9 1.87455 981.189 1.69393C982.022 1.17768 983.371 0.652678 984.52 0.407679C985.481 0.206429 985.496 0.206429 986.228 0.363928C986.644 0.451427 987.233 0.600178 987.548 0.696428ZM1029.98 0.512678C1030.87 0.757677 1032.19 1.31768 1032.85 1.73768C1033.11 1.89599 1033.13 2.26746 1032.88 2.44676L1032.38 2.81393C1030.63 4.10018 1029.18 5.50018 1025.46 9.50768C1021.99 13.2614 1020.44 14.6527 1018.33 15.9389C1016.89 16.8227 1015.69 17.3214 1014.34 17.6014L1014.29 17.6117C1013.69 17.7374 1013.06 17.7249 1012.47 17.5752C1011.29 17.2864 1010.26 16.9014 1009.3 16.3852C1008.93 16.1906 1008.89 15.6809 1009.23 15.4356L1009.56 15.1952C1011.11 14.0489 1012.64 12.5702 1016 9.00893C1020.14 4.62518 1020.9 3.89893 1022.85 2.51643C1024.74 1.16018 1027.6 0.101427 1028.88 0.276428C1029.11 0.311428 1029.61 0.416428 1029.98 0.512678ZM1043.06 0.565178C1046.08 1.40518 1048.76 3.41768 1053.07 8.06393C1057.1 12.4127 1058.77 14.0402 1060.52 15.3002L1060.61 15.3663C1060.97 15.6277 1060.94 16.1789 1060.55 16.3939C1059.51 16.9627 1058.42 17.3652 1057.3 17.6102C1056.5 17.7764 1056.44 17.7852 1055.74 17.6452C1054.62 17.4264 1053.15 16.8577 1052.03 16.2189C1049.68 14.8627 1047.9 13.2527 1043.59 8.58893C1040.63 5.37768 1038.17 3.09393 1036.93 2.38518C1036.73 2.26268 1036.56 2.12268 1036.56 2.06143C1036.56 1.92143 1038.55 0.941427 1039.33 0.696428C1040.38 0.372679 1041.32 0.215178 1041.81 0.276428C1042.06 0.311428 1042.62 0.442678 1043.06 0.565178Z" fill="white"/>
<path d="M1099.05 0.0664272C1099.11 0.101427 1099.49 0.162678 1099.91 0.197678C1100.33 0.223928 1101.14 0.381428 1101.73 0.530178C1104.78 1.30018 1107.47 3.26893 1111.64 7.71393C1116.42 12.8239 1117.49 13.8827 1119.38 15.2477C1121.11 16.5077 1122.69 17.2689 1124.49 17.6889C1125.29 17.8814 1125.56 17.8902 1128.22 17.8902C1131.39 17.8902 1132.08 17.8114 1133.56 17.2514C1134.84 16.7614 1134.82 16.7702 1135.35 17.0152C1136.96 17.7502 1138.37 17.9514 1141.71 17.9164C1144.07 17.8902 1144.2 17.8814 1145.3 17.6189C1148.63 16.8139 1151.26 14.8714 1156.21 9.55143C1158.72 6.84768 1160.17 5.37768 1161.32 4.34518C1162.66 3.16393 1162.73 3.11143 1162.87 3.21643C1163.66 3.75018 1166.1 6.10393 1168.2 8.37018C1170.75 11.1177 1171.74 12.1414 1173.01 13.3139C1175.63 15.7639 1177.84 17.0764 1180.36 17.6627C1181.23 17.8639 1181.56 17.8902 1183.7 17.9164C1187.03 17.9514 1188.18 17.7939 1190.06 17.0589L1190.14 17.0285C1190.53 16.8743 1190.97 16.8821 1191.35 17.0502C1192.95 17.7414 1193.72 17.8727 1196.69 17.9077C1199.58 17.9427 1200.63 17.8377 1202.06 17.3827C1205.16 16.3852 1207.37 14.6527 1212.44 9.24518C1213.98 7.60893 1215.64 5.87643 1216.13 5.39518C1217.19 4.36268 1218.59 3.16393 1218.73 3.16393C1219.02 3.16393 1221.61 5.62268 1223.75 7.93268C1228.89 13.4714 1230.49 14.9239 1232.97 16.3327C1234.19 17.0239 1235.34 17.4702 1236.51 17.7152C1237.59 17.9427 1241.87 18.0039 1243.25 17.8114C1244.22 17.6802 1245.36 17.3564 1246.13 17.0064C1246.58 16.8052 1246.65 16.7964 1246.95 16.9102C1249.35 17.8202 1249.69 17.8814 1252.61 17.9164C1253.91 17.9339 1255.36 17.8989 1255.84 17.8552C1258.23 17.6014 1260.83 16.3939 1263.19 14.4339C1264.22 13.5852 1265.76 12.0627 1267.61 10.0764C1271.84 5.53518 1273.52 3.92518 1275.35 2.61268C1277.27 1.24768 1279.65 0.311428 1281.45 0.215178C1281.94 0.188929 1282.37 0.127678 1282.42 0.0751781C1282.52 -0.0210724 1281.05 0.0664272 1279.77 0.241428C1276.41 0.696428 1273.29 2.16643 1270.12 4.78268C1268.77 5.89393 1267.61 7.01393 1264.94 9.74393C1261.22 13.5589 1260 14.6614 1258.13 15.8427C1256.58 16.8314 1255.09 17.4439 1253.66 17.6802C1253.14 17.7677 1252.92 17.7502 1252.26 17.6102C1251.21 17.3914 1249.99 16.9277 1249.02 16.3939L1248.72 16.2313C1248.49 16.1033 1248.47 15.7787 1248.69 15.6239C1250.73 14.1452 1252.1 12.8327 1255.84 8.85143C1259.67 4.75643 1261.08 3.47018 1263.23 2.07893C1264.8 1.06393 1266.99 0.293928 1268.54 0.215178C1269.02 0.188929 1269.45 0.127678 1269.49 0.0926781C1269.6 -0.0210724 1269.03 -0.00357246 1267.61 0.145178C1264.29 0.495178 1261.34 1.67643 1258.49 3.76768C1256.5 5.23768 1255.23 6.41018 1251.62 10.1377C1249.62 12.2027 1248.21 13.5677 1247.27 14.3377C1246.81 14.7227 1246.66 14.7927 1246.49 14.7052C1245.83 14.3727 1243.61 12.1677 1239.62 7.88893C1235.6 3.55768 1233.26 1.74643 1230.37 0.713928C1228.83 0.162678 1228.09 0.0751781 1225.12 0.0751781C1222.1 0.0839272 1221.3 0.197678 1219.68 0.827679L1219.56 0.871569C1219.01 1.09053 1218.39 1.08734 1217.84 0.862679C1217.38 0.670177 1216.53 0.416428 1215.96 0.302677C1215 0.0926781 1214.74 0.0839272 1212.27 0.0839272C1209.12 0.0839272 1208.38 0.188929 1206.6 0.888927C1203.81 2.00893 1201.6 3.79393 1197.27 8.46643C1193.88 12.1064 1192.17 13.8039 1191.09 14.5827C1190.88 14.739 1190.59 14.739 1190.38 14.5827C1189.3 13.8039 1187.59 12.1064 1184.2 8.46643C1179.39 3.28643 1176.9 1.37893 1173.72 0.495178C1172.43 0.127678 1171.34 0.0314274 1168.7 0.0576782C1166.82 0.0751781 1166.42 0.101427 1165.51 0.293928C1164.94 0.416428 1164.09 0.678928 1163.62 0.871428L1163.24 1.02499C1162.93 1.15031 1162.59 1.14223 1162.28 1.00268C1161.51 0.643929 1159.84 0.206429 1158.92 0.118927C1158.46 0.0751781 1157.07 0.0489273 1155.84 0.0664272C1154 0.0839272 1153.44 0.127678 1152.68 0.276428C1151.32 0.556427 1150.18 1.01143 1148.76 1.84268C1146.35 3.26893 1144.93 4.55518 1140.51 9.31518C1138.25 11.7564 1136.64 13.3489 1135.52 14.2764L1135.33 14.4405C1135.07 14.6586 1134.69 14.6558 1134.43 14.4339C1133.62 13.7514 1132.28 12.4214 1130.11 10.1202C1126.44 6.23518 1125.03 4.92268 1122.96 3.47018C1120.77 1.92143 1118.57 0.950178 1116.15 0.460178C1115.03 0.232677 1113.02 0.00517845 1112.14 0.0139275C1111.59 0.0226784 1112.24 0.162678 1113.07 0.215178C1114.15 0.293928 1115.94 0.845179 1117.16 1.46643C1119.73 2.79643 1121.53 4.39768 1126.71 9.98893C1128.71 12.1414 1130.8 14.1364 1131.98 15.0114C1132.35 15.2914 1132.8 15.6152 1132.96 15.7377C1133.09 15.8408 1133.08 16.0489 1132.93 16.1314L1132.45 16.3939C1131.51 16.9189 1130.06 17.4527 1129.06 17.6452C1128.36 17.7852 1128.3 17.7764 1127.5 17.6102C1126.21 17.3302 1125.19 16.9189 1123.91 16.1577C1121.94 14.9939 1120.57 13.7427 1116.66 9.59518C1115.53 8.38768 1114.15 6.97018 1113.6 6.44518C1109.89 2.86643 1106.27 0.897678 1102.31 0.285177C1101.14 0.110178 1098.86 -0.0473213 1099.05 0.0664272ZM1157.6 0.477678C1158.75 0.775177 1161.16 1.85143 1161.16 2.07018C1161.16 2.12268 1160.99 2.26268 1160.79 2.38518C1159.58 3.06768 1157.06 5.42143 1154.13 8.58893C1149.66 13.4189 1148.04 14.8802 1145.62 16.2539C1144.4 16.9364 1143.36 17.3477 1142.16 17.6102C1141.34 17.7764 1141.3 17.7764 1140.53 17.6364C1139.52 17.4439 1138.37 17.0152 1137.23 16.4114C1136.82 16.1897 1136.78 15.6076 1137.16 15.3319L1137.2 15.3002C1138.58 14.2939 1140.45 12.5614 1142.65 10.2077C1146.05 6.55893 1146.79 5.78893 1148.03 4.65143C1150.68 2.20143 1153.1 0.818928 1155.52 0.363928C1156.37 0.206429 1156.6 0.223928 1157.6 0.477678ZM1171.3 0.696428C1173.98 1.52768 1176.84 3.74143 1180.97 8.19518C1185.32 12.8677 1186.46 13.9527 1188.65 15.5452C1188.92 15.7403 1188.89 16.1467 1188.6 16.3041L1188.58 16.3152C1187.63 16.8314 1186.41 17.2952 1185.28 17.5664C1184.29 17.8027 1184.29 17.8027 1183.53 17.6452C1181.12 17.1727 1178.72 15.8164 1176.18 13.4889C1174.84 12.2814 1173.81 11.2227 1171.71 8.93893C1168.76 5.71893 1167.05 4.08268 1165.34 2.81393L1164.91 2.49298C1164.63 2.29001 1164.65 1.87455 1164.94 1.69393C1165.77 1.17768 1167.12 0.652678 1168.27 0.407679C1169.23 0.206429 1169.25 0.206429 1169.98 0.363928C1170.39 0.451427 1170.98 0.600178 1171.3 0.696428ZM1213.73 0.512678C1214.62 0.757677 1215.94 1.31768 1216.6 1.73768C1216.86 1.89599 1216.88 2.26746 1216.63 2.44676L1216.13 2.81393C1214.38 4.10018 1212.93 5.50018 1209.21 9.50768C1205.74 13.2614 1204.19 14.6527 1202.08 15.9389C1200.64 16.8227 1199.44 17.3214 1198.09 17.6014L1198.04 17.6117C1197.44 17.7374 1196.81 17.7249 1196.22 17.5752C1195.04 17.2864 1194.01 16.9014 1193.05 16.3852C1192.68 16.1906 1192.64 15.6809 1192.98 15.4356L1193.31 15.1952C1194.86 14.0489 1196.39 12.5702 1199.75 9.00893C1203.89 4.62518 1204.65 3.89893 1206.6 2.51643C1208.49 1.16018 1211.35 0.101427 1212.63 0.276428C1212.86 0.311428 1213.36 0.416428 1213.73 0.512678ZM1226.81 0.565178C1229.83 1.40518 1232.51 3.41768 1236.82 8.06393C1240.85 12.4127 1242.52 14.0402 1244.27 15.3002L1244.36 15.3663C1244.72 15.6277 1244.69 16.1789 1244.3 16.3939C1243.26 16.9627 1242.17 17.3652 1241.05 17.6102C1240.25 17.7764 1240.19 17.7852 1239.49 17.6452C1238.37 17.4264 1236.9 16.8577 1235.78 16.2189C1233.43 14.8627 1231.65 13.2527 1227.34 8.58893C1224.38 5.37768 1221.92 3.09393 1220.68 2.38518C1220.48 2.26268 1220.31 2.12268 1220.31 2.06143C1220.31 1.92143 1222.3 0.941427 1223.08 0.696428C1224.13 0.372679 1225.07 0.215178 1225.56 0.276428C1225.81 0.311428 1226.37 0.442678 1226.81 0.565178Z" fill="white"/>
<path d="M1282.62 0.078146C1282.68 0.113146 1283.07 0.174397 1283.48 0.209396C1283.9 0.235647 1284.72 0.393147 1285.3 0.541897C1288.35 1.3119 1291.05 3.28065 1295.21 7.72565C1299.99 12.8356 1301.07 13.8944 1302.95 15.2594C1304.68 16.5194 1306.26 17.2806 1308.06 17.7006C1308.86 17.8931 1309.13 17.9019 1311.79 17.9019C1314.96 17.9019 1315.65 17.8231 1317.13 17.2631C1318.41 16.7731 1318.39 16.7819 1318.92 17.0269C1320.53 17.7619 1321.94 17.9631 1325.28 17.9281C1327.64 17.9019 1327.77 17.8931 1328.87 17.6306C1332.2 16.8256 1334.83 14.8831 1339.78 9.56315C1342.3 6.8594 1343.75 5.3894 1344.89 4.3569C1346.23 3.17565 1346.3 3.12315 1346.44 3.22815C1347.23 3.7619 1349.67 6.11565 1351.77 8.3819C1354.33 11.1294 1355.32 12.1531 1356.58 13.3256C1359.21 15.7756 1361.42 17.0881 1363.93 17.6744C1364.8 17.8756 1365.13 17.9019 1367.27 17.9281C1370.6 17.9631 1371.75 17.8056 1373.63 17.0706L1373.71 17.0403C1374.1 16.886 1374.54 16.8938 1374.93 17.0619C1376.52 17.7531 1377.29 17.8844 1380.27 17.9194C1383.15 17.9544 1384.2 17.8494 1385.63 17.3944C1388.74 16.3969 1390.95 14.6644 1396.01 9.2569C1397.55 7.62065 1399.21 5.88815 1399.7 5.4069C1400.76 4.3744 1402.16 3.17565 1402.3 3.17565C1402.59 3.17565 1405.19 5.6344 1407.33 7.9444C1412.46 13.4831 1414.06 14.9356 1416.54 16.3444C1417.76 17.0356 1418.91 17.4819 1420.09 17.7269C1421.16 17.9544 1425.44 18.0156 1426.82 17.8231C1427.8 17.6919 1428.93 17.3681 1429.71 17.0181C1430.15 16.8169 1430.22 16.8081 1430.52 16.9219C1432.92 17.8319 1433.27 17.8931 1436.18 17.9281C1437.49 17.9456 1438.94 17.9106 1439.41 17.8669C1441.81 17.6131 1444.41 16.4056 1446.76 14.4456C1447.79 13.5969 1449.33 12.0744 1451.18 10.0881C1455.42 5.5469 1457.1 3.9369 1458.92 2.6244C1460.84 1.2594 1463.23 0.323147 1465.02 0.226896C1465.51 0.200647 1465.94 0.139397 1466 0.0868969C1466.1 -0.00935364 1464.62 0.078146 1463.34 0.253147C1459.98 0.708147 1456.87 2.17815 1453.69 4.7944C1452.34 5.90565 1451.18 7.02565 1448.51 9.75565C1444.79 13.5706 1443.57 14.6731 1441.71 15.8544C1440.16 16.8431 1438.66 17.4556 1437.23 17.6919C1436.71 17.7794 1436.5 17.7619 1435.84 17.6219C1434.79 17.4031 1433.57 16.9394 1432.59 16.4056L1432.3 16.243C1432.07 16.115 1432.05 15.7904 1432.26 15.6356C1434.3 14.1569 1435.68 12.8444 1439.41 8.86315C1443.24 4.76815 1444.65 3.4819 1446.8 2.09065C1448.37 1.07565 1450.56 0.305647 1452.11 0.226896C1452.59 0.200647 1453.02 0.139397 1453.06 0.104397C1453.18 -0.00935364 1452.6 0.00814629 1451.18 0.156897C1447.86 0.506897 1444.91 1.68815 1442.07 3.7794C1440.07 5.2494 1438.81 6.4219 1435.19 10.1494C1433.19 12.2144 1431.79 13.5794 1430.84 14.3494C1430.38 14.7344 1430.24 14.8044 1430.06 14.7169C1429.4 14.3844 1427.18 12.1794 1423.19 7.90065C1419.17 3.5694 1416.83 1.75815 1413.94 0.725647C1412.41 0.174397 1411.66 0.0868969 1408.69 0.0868969C1405.67 0.0956459 1404.87 0.209396 1403.25 0.839397L1403.14 0.883287C1402.58 1.10225 1401.96 1.09906 1401.41 0.874397C1400.95 0.681896 1400.1 0.428146 1399.53 0.314396C1398.57 0.104397 1398.31 0.0956459 1395.84 0.0956459C1392.7 0.0956459 1391.95 0.200647 1390.17 0.900646C1387.39 2.02065 1385.17 3.80565 1380.84 8.47815C1377.45 12.1181 1375.74 13.8156 1374.67 14.5944C1374.45 14.7507 1374.16 14.7507 1373.95 14.5944C1372.87 13.8156 1371.16 12.1181 1367.78 8.47815C1362.97 3.29815 1360.47 1.39065 1357.3 0.506897C1356 0.139397 1354.91 0.0431461 1352.27 0.069397C1350.39 0.0868969 1349.99 0.113146 1349.09 0.305647C1348.51 0.428146 1347.66 0.690647 1347.19 0.883146L1346.81 1.03671C1346.5 1.16203 1346.16 1.15395 1345.86 1.0144C1345.08 0.655647 1343.42 0.218147 1342.5 0.130646C1342.04 0.0868969 1340.64 0.0606461 1339.41 0.078146C1337.57 0.0956459 1337.01 0.139397 1336.25 0.288147C1334.89 0.568146 1333.75 1.02315 1332.33 1.8544C1329.92 3.28065 1328.5 4.5669 1324.08 9.3269C1321.82 11.7681 1320.22 13.3606 1319.1 14.2881L1318.9 14.4522C1318.64 14.6703 1318.26 14.6675 1318.01 14.4456C1317.19 13.7631 1315.85 12.4331 1313.69 10.1319C1310.01 6.2469 1308.6 4.9344 1306.54 3.4819C1304.34 1.93315 1302.14 0.961897 1299.72 0.471897C1298.6 0.244396 1296.59 0.0168972 1295.71 0.0256462C1295.17 0.0343971 1295.81 0.174397 1296.65 0.226896C1297.72 0.305647 1299.52 0.856897 1300.74 1.47815C1303.31 2.80815 1305.1 4.4094 1310.28 10.0006C1312.28 12.1531 1314.37 14.1481 1315.55 15.0231C1315.92 15.3031 1316.37 15.6269 1316.53 15.7494C1316.66 15.8525 1316.65 16.0606 1316.5 16.1431L1316.03 16.4056C1315.08 16.9306 1313.63 17.4644 1312.64 17.6569C1311.93 17.7969 1311.88 17.7881 1311.07 17.6219C1309.78 17.3419 1308.76 16.9306 1307.48 16.1694C1305.52 15.0056 1304.14 13.7544 1300.23 9.6069C1299.1 8.3994 1297.72 6.9819 1297.18 6.4569C1293.46 2.87815 1289.84 0.909397 1285.88 0.296896C1284.72 0.121897 1282.43 -0.0356026 1282.62 0.078146ZM1341.18 0.489397C1342.32 0.786896 1344.74 1.86315 1344.74 2.0819C1344.74 2.1344 1344.56 2.2744 1344.36 2.3969C1343.16 3.0794 1340.63 5.43315 1337.7 8.60065C1333.24 13.4306 1331.62 14.8919 1329.19 16.2656C1327.97 16.9481 1326.94 17.3594 1325.73 17.6219C1324.91 17.7881 1324.87 17.7881 1324.11 17.6481C1323.09 17.4556 1321.94 17.0269 1320.81 16.4231C1320.39 16.2014 1320.35 15.6193 1320.73 15.3436L1320.78 15.3119C1322.15 14.3056 1324.02 12.5731 1326.22 10.2194C1329.62 6.57065 1330.37 5.80065 1331.6 4.66315C1334.26 2.21315 1336.67 0.830647 1339.09 0.375647C1339.94 0.218147 1340.17 0.235647 1341.18 0.489397ZM1354.87 0.708147C1357.56 1.5394 1360.41 3.75315 1364.55 8.2069C1368.9 12.8794 1370.03 13.9644 1372.23 15.5569C1372.49 15.752 1372.47 16.1584 1372.18 16.3158L1372.15 16.3269C1371.21 16.8431 1369.99 17.3069 1368.85 17.5781C1367.86 17.8144 1367.86 17.8144 1367.1 17.6569C1364.69 17.1844 1362.29 15.8281 1359.75 13.5006C1358.42 12.2931 1357.38 11.2344 1355.29 8.95065C1352.33 5.73065 1350.62 4.0944 1348.91 2.82565L1348.48 2.5047C1348.21 2.30173 1348.22 1.88627 1348.51 1.70565C1349.34 1.1894 1350.69 0.664396 1351.84 0.419397C1352.8 0.218147 1352.82 0.218147 1353.55 0.375647C1353.97 0.463146 1354.55 0.611897 1354.87 0.708147ZM1397.31 0.524397C1398.2 0.769396 1399.52 1.3294 1400.18 1.7494C1400.44 1.90771 1400.45 2.27918 1400.21 2.45848L1399.7 2.82565C1397.95 4.1119 1396.5 5.5119 1392.78 9.5194C1389.31 13.2731 1387.76 14.6644 1385.65 15.9506C1384.21 16.8344 1383.01 17.3331 1381.66 17.6131L1381.61 17.6234C1381.01 17.7491 1380.39 17.7366 1379.79 17.5869C1378.61 17.2981 1377.58 16.9131 1376.62 16.3969C1376.25 16.2024 1376.22 15.6926 1376.55 15.4474L1376.88 15.2069C1378.43 14.0606 1379.96 12.5819 1383.32 9.02065C1387.46 4.6369 1388.22 3.91065 1390.17 2.52815C1392.07 1.1719 1394.92 0.113146 1396.2 0.288147C1396.43 0.323147 1396.93 0.428146 1397.31 0.524397ZM1410.38 0.576897C1413.4 1.4169 1416.08 3.4294 1420.39 8.07565C1424.42 12.4244 1426.09 14.0519 1427.84 15.3119L1427.93 15.378C1428.29 15.6394 1428.26 16.1906 1427.87 16.4056C1426.83 16.9744 1425.74 17.3769 1424.62 17.6219C1423.82 17.7881 1423.76 17.7969 1423.06 17.6569C1421.94 17.4381 1420.47 16.8694 1419.36 16.2306C1417 14.8744 1415.22 13.2644 1410.91 8.60065C1407.96 5.3894 1405.49 3.10565 1404.25 2.3969C1404.05 2.2744 1403.88 2.1344 1403.88 2.07315C1403.88 1.93315 1405.88 0.953146 1406.65 0.708147C1407.7 0.384398 1408.65 0.226896 1409.13 0.288147C1409.38 0.323147 1409.94 0.454397 1410.38 0.576897Z" fill="white"/>
</svg>
