<svg width="17" height="25" viewBox="0 0 17 25" fill="none" xmlns="http://www.w3.org/2000/svg">
<path d="M16.3783 21.8607L14.4122 17.8289C14.0197 17.0283 13.0243 16.7057 12.1933 17.1113L10.1623 18.1015C10.085 18.0161 10.0051 17.9271 9.92131 17.833C9.14926 16.9759 8.09293 15.8017 7.19231 13.9534C6.28862 12.1009 6.0137 10.5433 5.81217 9.40604C5.79104 9.28563 5.77101 9.16965 5.74995 9.05882L7.11258 8.39547L7.78296 8.06799C8.61526 7.66192 8.97283 6.6789 8.58235 5.87706L6.61631 1.84494C6.22554 1.04393 5.2297 0.721256 4.3974 1.12733L3.25953 1.68635L3.27473 1.71723C2.86681 1.98126 2.48639 2.31679 2.15529 2.70587C1.84542 3.07804 1.60361 3.45175 1.41641 3.84519C-0.109921 6.99161 0.357156 10.5084 3.02648 15.9814C6.71646 23.5463 11.3979 24.6827 11.6007 24.7294C12.0444 24.8251 12.4878 24.8639 12.9583 24.8457C13.4641 24.825 13.9623 24.7321 14.4211 24.5737L14.4339 24.5965L15.5788 24.0529C16.4098 23.6464 16.7682 22.6633 16.3783 21.8607Z" fill="#7A7A7A"/>
</svg>
