<svg width="179" height="18" viewBox="0 0 179 18" fill="none" xmlns="http://www.w3.org/2000/svg">
<path d="M0.0105227 0.0530014C0.0665693 0.0881729 0.444884 0.149721 0.851221 0.184893C1.25756 0.211271 2.05622 0.369539 2.6307 0.519014C5.60117 1.29277 8.23536 3.27113 12.2987 7.73782C16.9646 12.8728 18.0155 13.9367 19.851 15.3083C21.5464 16.5745 23.0877 17.3395 24.8392 17.7615C25.6238 17.9549 25.89 17.9637 28.4822 17.9637C31.5788 17.9637 32.2513 17.8846 33.6945 17.3219C34.9416 16.8295 34.9275 16.8383 35.446 17.0845C37.0153 17.823 38.3884 18.0253 41.6531 17.9901C43.951 17.9637 44.0771 17.9549 45.156 17.6912C48.4067 16.8822 50.9709 14.9303 55.8049 9.58429C58.2569 6.86734 59.6721 5.39017 60.793 4.35263C62.0961 3.16562 62.1662 3.11286 62.3063 3.21837C63.0769 3.75473 65.4589 6.11996 67.5046 8.39727C69.9987 11.1582 70.9655 12.1869 72.1985 13.3651C74.7626 15.8271 76.9204 17.146 79.3725 17.7351C80.2272 17.9374 80.5495 17.9637 82.6372 17.9901C85.8879 18.0253 87.0088 17.867 88.8443 17.1284L88.9192 17.0981C89.301 16.9433 89.7295 16.9511 90.1054 17.1196C91.6607 17.8143 92.4173 17.9461 95.3177 17.9813C98.1341 18.0165 99.1569 17.911 100.558 17.4538C103.585 16.4514 105.742 14.7104 110.688 9.27654C112.188 7.63231 113.813 5.89135 114.289 5.40776C115.326 4.37022 116.685 3.16562 116.826 3.16562C117.106 3.16562 119.642 5.63637 121.73 7.95764C126.746 13.5234 128.301 14.983 130.725 16.3986C131.916 17.0933 133.037 17.5417 134.186 17.7879C135.237 18.0165 139.412 18.078 140.757 17.8846C141.71 17.7527 142.817 17.4274 143.574 17.0757C144.008 16.8734 144.078 16.8646 144.372 16.9789C146.712 17.8934 147.049 17.9549 149.893 17.9901C151.168 18.0077 152.583 17.9725 153.046 17.9286C155.386 17.6736 157.922 16.4602 160.22 14.4906C161.229 13.6377 162.728 12.1078 164.535 10.1119C168.669 5.54844 170.308 3.93058 172.088 2.61168C173.965 1.24002 176.291 0.299198 178.042 0.202478C178.519 0.1761 178.939 0.11455 178.995 0.0617943C179.093 -0.0349255 177.65 0.0530014 176.403 0.228855C173.124 0.686075 170.084 2.16325 166.987 4.79227C165.67 5.90894 164.535 7.03441 161.929 9.77773C158.3 13.6113 157.109 14.7192 155.288 15.9062C153.774 16.8998 152.317 17.5153 150.916 17.7527C150.411 17.8406 150.201 17.823 149.557 17.6824C148.534 17.4625 147.343 16.9965 146.39 16.4602L146.105 16.2976C145.876 16.1669 145.856 15.844 146.068 15.6864C148.058 14.2005 149.403 12.8816 153.046 8.88087C156.787 4.76589 158.16 3.47336 160.262 2.07532C161.789 1.05537 163.933 0.281612 165.446 0.202478C165.908 0.1761 166.329 0.114552 166.371 0.07938C166.483 -0.0349255 165.922 -0.0173397 164.535 0.132135C161.299 0.483843 158.412 1.67086 155.638 3.77231C153.69 5.24949 152.457 6.42771 148.926 10.1734C146.979 12.2485 145.606 13.6201 144.681 14.3939C144.232 14.7808 144.092 14.8511 143.924 14.7632C143.28 14.4291 141.108 12.2133 137.213 7.91368C133.289 3.56129 131.005 1.7412 128.189 0.703661C126.69 0.149721 125.961 0.0617943 123.061 0.0617943C120.118 0.0705872 119.334 0.184893 117.75 0.817966L117.642 0.862001C117.101 1.0816 116.495 1.07842 115.957 0.853138C115.509 0.659698 114.682 0.404711 114.121 0.290405C113.183 0.07938 112.93 0.0705872 110.52 0.0705872C107.452 0.0705872 106.723 0.1761 104.986 0.879517C102.268 2.00498 100.11 3.79869 95.8782 8.49399C92.5714 12.1518 90.9041 13.8575 89.8532 14.6401C89.6458 14.7963 89.36 14.7963 89.1526 14.6401C88.1017 13.8575 86.4343 12.1518 83.1276 8.49399C78.4337 3.28872 75.9957 1.37191 72.8991 0.483845C71.638 0.114552 70.5732 0.0178299 67.995 0.0442085C66.1595 0.0617943 65.7672 0.0881729 64.8844 0.281612C64.324 0.404711 63.4973 0.668491 63.0349 0.861931L62.6665 1.01605C62.3659 1.14179 62.0261 1.13371 61.7318 0.99382C60.9752 0.63332 59.3498 0.193686 58.4531 0.105759C58.0047 0.0617943 56.6456 0.0354156 55.4406 0.0530014C53.6471 0.0705872 53.1006 0.114552 52.358 0.264027C51.0269 0.545393 49.92 1.00261 48.5328 1.83792C46.1789 3.27113 44.7917 4.56366 40.4762 9.34689C38.2763 11.8 36.707 13.4003 35.6141 14.3323L35.4236 14.4971C35.1719 14.7147 34.7977 14.712 34.5492 14.4906C33.7506 13.8048 32.4475 12.4683 30.3317 10.1558C26.7447 6.25185 25.3716 4.93295 23.3539 3.47336C21.2101 1.91705 19.0664 0.941065 16.6984 0.448673C15.6055 0.220062 13.6439 -0.00854683 12.7891 0.000246048C12.2567 0.00903893 12.8872 0.149723 13.6999 0.202478C14.7508 0.281612 16.5022 0.835552 17.6932 1.45983C20.2013 2.79632 21.9528 4.40539 27.011 10.0239C28.9586 12.1869 31.0043 14.1917 32.1532 15.0709C32.5175 15.3523 32.9519 15.6776 33.106 15.8007C33.2398 15.9057 33.2246 16.1128 33.0769 16.197L32.6156 16.4602C31.6908 16.9877 30.2757 17.5241 29.3089 17.7175C28.6223 17.8582 28.5663 17.8494 27.7816 17.6824C26.5206 17.401 25.5257 16.9877 24.2787 16.2228C22.3591 15.0533 21.014 13.796 17.2028 9.62825C16.0959 8.41486 14.7508 6.99044 14.2183 6.46288C10.5893 2.86667 7.05838 0.888309 3.19117 0.27282C2.05622 0.0969658 -0.171629 -0.0613041 0.0105227 0.0530014ZM57.164 0.466259C58.285 0.765211 60.6389 1.84671 60.6389 2.06653C60.6389 2.11929 60.4708 2.25997 60.2746 2.38307C59.0976 3.0689 56.6316 5.43413 53.7732 8.61709C49.4156 13.4707 47.8323 14.939 45.4643 16.3195C44.2733 17.0053 43.2645 17.4186 42.0875 17.6824C41.2888 17.8494 41.2468 17.8494 40.5042 17.7087C39.5093 17.5153 38.3884 17.0845 37.2815 16.4778C36.8692 16.2519 36.8298 15.6749 37.2076 15.3951L37.2535 15.3611C38.5986 14.3499 40.4201 12.609 42.5639 10.2437C45.8846 6.57718 46.6133 5.80343 47.8183 4.66038C50.4104 2.19842 52.7644 0.809174 55.1323 0.351954C55.959 0.193686 56.1832 0.211271 57.164 0.466259ZM70.5311 0.686077C73.1513 1.52138 75.9396 3.74594 79.975 8.22142C84.2205 12.9167 85.3274 14.007 87.4712 15.6073C87.735 15.8059 87.7073 16.2102 87.4189 16.3711L87.4011 16.381C86.4764 16.8998 85.2854 17.3658 84.1785 17.6384C83.2117 17.8758 83.2117 17.8758 82.469 17.7175C80.1151 17.2427 77.7751 15.8799 75.2951 13.541C73.992 12.3276 72.9832 11.2637 70.9375 8.9688C68.0511 5.73309 66.3837 4.08885 64.7163 2.81391L64.2918 2.49048C64.0214 2.28439 64.0379 1.87224 64.324 1.68844C65.1366 1.16967 66.4537 0.642113 67.5747 0.395918C68.5135 0.193686 68.5275 0.193686 69.2421 0.351954C69.6484 0.43988 70.2229 0.589357 70.5311 0.686077ZM111.95 0.501431C112.818 0.747625 114.107 1.31036 114.752 1.73241C115.009 1.89353 115.024 2.26202 114.782 2.44409L114.289 2.81391C112.58 4.10644 111.165 5.51327 107.536 9.54033C104.145 13.3124 102.632 14.7104 100.572 16.003C99.1709 16.891 97.9939 17.3922 96.6769 17.6736L96.6295 17.6838C96.0433 17.81 95.4358 17.7975 94.8553 17.6472C93.7064 17.357 92.6975 16.9702 91.7588 16.4514C91.397 16.2533 91.36 15.7481 91.6889 15.4993L92.011 15.2556C93.5242 14.1037 95.0235 12.6178 98.3022 9.03914C102.338 4.634 103.08 3.90421 104.986 2.51496C106.835 1.15209 109.624 0.0881729 110.871 0.264027C111.095 0.299198 111.585 0.404711 111.95 0.501431ZM124.714 0.554186C127.657 1.39828 130.277 3.42061 134.48 8.08953C138.418 12.4595 140.043 14.0949 141.752 15.3611L141.844 15.4293C142.203 15.6947 142.169 16.2412 141.78 16.4602C140.771 17.0317 139.707 17.4362 138.614 17.6824C137.829 17.8494 137.773 17.8582 137.086 17.7175C135.994 17.4977 134.564 16.9262 133.471 16.2843C131.174 14.9215 129.436 13.3036 125.233 8.61709C122.346 5.39017 119.936 3.09528 118.731 2.38307C118.535 2.25997 118.367 2.11929 118.367 2.05774C118.367 1.91705 120.314 0.932272 121.071 0.686077C122.094 0.360746 123.019 0.202478 123.495 0.264027C123.733 0.299198 124.28 0.431087 124.714 0.554186Z" fill="white"/>
</svg>
