<svg width="23" height="30" viewBox="0 0 23 30" fill="none" xmlns="http://www.w3.org/2000/svg">
<path d="M20.849 11.8902C20.6419 11.8872 20.4363 11.9264 20.2447 12.0053C20.0531 12.0843 19.8796 12.2014 19.7345 12.3495C19.5895 12.4976 19.4761 12.6737 19.4011 12.867C19.3261 13.0603 19.2912 13.2669 19.2983 13.4742V16.0732C19.3071 16.141 19.3013 16.2098 19.2814 16.2751C19.2614 16.3404 19.2278 16.4008 19.1828 16.452C19.1377 16.5033 19.0823 16.5444 19.0201 16.5726C18.958 16.6007 18.8905 16.6153 18.8223 16.6153C18.7541 16.6153 18.6866 16.6007 18.6245 16.5726C18.5623 16.5444 18.5069 16.5033 18.4618 16.452C18.4168 16.4008 18.3832 16.3404 18.3632 16.2751C18.3433 16.2098 18.3375 16.141 18.3463 16.0732V12.4168C18.3463 11.9959 18.1792 11.5921 17.8818 11.2945C17.5845 10.9968 17.1812 10.8295 16.7606 10.8295C16.3401 10.8295 15.9368 10.9968 15.6394 11.2945C15.342 11.5921 15.175 11.9959 15.175 12.4168V14.3374C15.1695 14.4669 15.113 14.5889 15.0178 14.6767C14.9227 14.7645 14.7966 14.811 14.6673 14.806C14.6066 14.8073 14.5462 14.7959 14.4902 14.7724C14.4341 14.749 14.3835 14.7141 14.3417 14.67C14.2999 14.6259 14.2677 14.5736 14.2472 14.5163C14.2268 14.459 14.2185 14.3981 14.2229 14.3374V11.3648C14.2137 10.9453 14.0423 10.5458 13.7447 10.2503C13.4471 9.95483 13.0465 9.78652 12.6274 9.7808C12.2159 9.80256 11.8269 9.97555 11.5349 10.2666C11.2429 10.5577 11.0685 10.9464 11.045 11.3582V16.06C11.0211 16.2112 10.9441 16.3489 10.8278 16.4483C10.7115 16.5477 10.5637 16.6023 10.4108 16.6023C10.2579 16.6023 10.11 16.5477 9.99373 16.4483C9.87746 16.3489 9.80044 16.2112 9.77651 16.06V5.93036C9.79479 5.71152 9.76742 5.49127 9.69613 5.28358C9.62483 5.0759 9.51118 4.88533 9.36238 4.72396C9.21358 4.56259 9.03289 4.43396 8.83178 4.34623C8.63067 4.25851 8.41353 4.2136 8.19416 4.21437C7.9759 4.21865 7.76075 4.26688 7.56152 4.35619C7.36229 4.44551 7.18306 4.57407 7.03453 4.73421C6.886 4.89435 6.77121 5.08279 6.697 5.2883C6.62278 5.4938 6.59067 5.71217 6.60258 5.93036V16.9378C6.60258 16.9378 1.81728 11.9311 0.494693 13.2577C-0.827891 14.5843 2.31703 17.5688 6.40742 24.5094C8.29437 27.6642 10.6072 29.7669 14.5921 29.7669C16.6759 29.7503 18.6694 28.9138 20.1422 27.4381C21.6149 25.9623 22.4485 23.9658 22.463 21.8799V13.4676C22.4517 13.0462 22.2768 12.6458 21.9755 12.3513C21.6742 12.0568 21.2701 11.8914 20.849 11.8902Z" fill="#78A4C1"/>
<path d="M2.85217 6.42931C2.97842 6.42931 3.0995 6.37911 3.18877 6.28974C3.27804 6.20038 3.32819 6.07917 3.32819 5.95279C3.31749 5.30063 3.43686 4.65287 3.67933 4.04746C3.92179 3.44205 4.28246 2.89114 4.74024 2.42698C5.19802 1.96283 5.7437 1.59476 6.34533 1.34432C6.94696 1.09388 7.59246 0.966102 8.24403 0.968473C9.53391 1.04278 10.7503 1.59375 11.6576 2.51461C12.5648 3.43547 13.0983 4.66066 13.1546 5.95279C13.1546 6.07917 13.2048 6.20038 13.294 6.28974C13.3833 6.37911 13.5044 6.42931 13.6306 6.42931C13.7569 6.42931 13.878 6.37911 13.9672 6.28974C14.0565 6.20038 14.1066 6.07917 14.1066 5.95279C14.0385 4.41147 13.401 2.95039 12.3178 1.85287C11.2346 0.755359 9.78282 0.099614 8.24403 0.0127928C7.46638 0.00829829 6.69565 0.159323 5.97709 0.457006C5.25852 0.754688 4.60658 1.19303 4.05951 1.74632C3.51245 2.29961 3.08128 2.9567 2.79131 3.67904C2.50133 4.40138 2.35839 5.17441 2.37087 5.95279C2.37087 6.01582 2.38335 6.07822 2.4076 6.13638C2.43185 6.19454 2.46739 6.2473 2.51215 6.29162C2.55692 6.33594 2.61002 6.37093 2.66838 6.39457C2.72674 6.4182 2.78921 6.43001 2.85217 6.42931Z" fill="#78A4C1"/>
<path d="M8.2506 2.08008C7.27807 2.10036 6.3519 2.49999 5.66938 3.19381C4.98687 3.88764 4.60197 4.82082 4.59668 5.79456C4.59668 5.92094 4.64683 6.04214 4.73611 6.13151C4.82538 6.22087 4.94645 6.27108 5.0727 6.27108C5.19895 6.27108 5.32003 6.22087 5.40931 6.13151C5.49858 6.04214 5.54873 5.92094 5.54873 5.79456C5.55943 5.07524 5.84581 4.38754 6.34866 3.8736C6.85152 3.35966 7.53241 3.05877 8.2506 3.03312C8.947 3.11563 9.59404 3.43484 10.0836 3.93744C10.5732 4.44003 10.8757 5.09557 10.9406 5.79456C10.9406 5.92094 10.9907 6.04214 11.08 6.13151C11.1693 6.22087 11.2904 6.27108 11.4166 6.27108C11.5429 6.27108 11.664 6.22087 11.7532 6.13151C11.8425 6.04214 11.8926 5.92094 11.8926 5.79456C11.828 4.84232 11.4253 3.9446 10.7575 3.26345C10.0896 2.5823 9.20047 2.16258 8.2506 2.08008Z" fill="#78A4C1"/>
</svg>
