<svg width="89" height="17" viewBox="0 0 89 17" fill="none" xmlns="http://www.w3.org/2000/svg">
<path d="M8.41892 0L10.8932 5.01339L16.4258 5.81733L12.4224 9.71971L13.3674 15.23L8.41892 12.6284L3.4704 15.23L4.41548 9.71971L0.412051 5.81733L5.94466 5.01339L8.41892 0Z" fill="#FFA009"/>
<path d="M26.4599 0L28.9342 5.01339L34.4668 5.81733L30.4634 9.71971L31.4085 15.23L26.4599 12.6284L21.5114 15.23L22.4565 9.71971L18.4531 5.81733L23.9857 5.01339L26.4599 0Z" fill="#FFA009"/>
<path d="M44.5009 0L46.9752 5.01339L52.5078 5.81733L48.5044 9.71971L49.4495 15.23L44.5009 12.6284L39.5524 15.23L40.4975 9.71971L36.4941 5.81733L42.0267 5.01339L44.5009 0Z" fill="#FFA009"/>
<path d="M62.54 0L65.0143 5.01339L70.5469 5.81733L66.5434 9.71971L67.4885 15.23L62.54 12.6284L57.5915 15.23L58.5366 9.71971L54.5331 5.81733L60.0658 5.01339L62.54 0Z" fill="#FFA009"/>
<path d="M80.581 0L83.0553 5.01339L88.5879 5.81733L84.5845 9.71971L85.5295 15.23L80.581 12.6284L75.6325 15.23L76.5776 9.71971L72.5742 5.81733L78.1068 5.01339L80.581 0Z" fill="#FFA009"/>
</svg>
