<svg width="22" height="23" viewBox="0 0 22 23" fill="none" xmlns="http://www.w3.org/2000/svg">
<path fill-rule="evenodd" clip-rule="evenodd" d="M16.2421 15.1149L21.6655 20.7555C22.1243 21.2327 22.1091 21.9935 21.6323 22.4523C21.4079 22.6683 21.1123 22.7871 20.8007 22.7871C20.4715 22.7871 20.1643 22.6563 19.9358 22.4191L14.4713 16.7357C12.9196 17.8262 11.1048 18.4006 9.2003 18.4006C4.12733 18.4006 0 14.2733 0 9.2003C0 4.12733 4.12733 0 9.2003 0C14.2733 0 18.4006 4.12733 18.4006 9.2003C18.4006 11.3716 17.6366 13.4572 16.2421 15.1149ZM16.0008 9.19866C16.0008 5.44894 12.9503 2.39844 9.20061 2.39844C5.45089 2.39844 2.40039 5.44894 2.40039 9.19866C2.40039 12.9484 5.45089 15.9989 9.20061 15.9989C12.9503 15.9989 16.0008 12.9484 16.0008 9.19866Z" fill="white"/>
</svg>
