<svg width="20" height="19" viewBox="0 0 20 19" fill="none" xmlns="http://www.w3.org/2000/svg">
<path d="M4.66667 18.6667C4.56867 18.6667 4.47 18.6447 4.37733 18.6007C4.14733 18.4893 4 18.2567 4 18V14.6667H2C0.897333 14.6667 0 13.7693 0 12.6667V2C0 0.897333 0.897333 0 2 0H18C19.1027 0 20 0.897333 20 2V12.6667C20 13.7693 19.1027 14.6667 18 14.6667H9.90067L5.08333 18.5207C4.96267 18.6173 4.81533 18.6667 4.66667 18.6667ZM2 1.33333C1.632 1.33333 1.33333 1.63267 1.33333 2V12.6667C1.33333 13.034 1.632 13.3333 2 13.3333H4.66667C5.03533 13.3333 5.33333 13.6313 5.33333 14V16.6133L9.25 13.4793C9.36867 13.3847 9.51467 13.3333 9.66667 13.3333H18C18.368 13.3333 18.6667 13.034 18.6667 12.6667V2C18.6667 1.63267 18.368 1.33333 18 1.33333H2Z" fill="white"/>
</svg>
